G04 #@! TF.FileFunction,Copper,L2,Bot,Signal*
%FSLAX46Y46*%
G04 Gerber Fmt 4.6, Leading zero omitted, Abs format (unit mm)*
G04 Created by KiCad (PCBNEW 4.0.1-stable) date Monday, 18 September 2017 'pmt' 22:45:53*
%MOMM*%
G01*
G04 APERTURE LIST*
%ADD10C,0.100000*%
%ADD11R,2.500000X2.500000*%
%ADD12C,2.500000*%
%ADD13O,0.850000X2.000000*%
%ADD14O,3.000000X5.000000*%
%ADD15O,3.000000X5.500000*%
%ADD16O,5.000000X3.000000*%
%ADD17O,1.600000X2.600000*%
%ADD18C,0.600000*%
%ADD19C,1.000000*%
%ADD20C,0.800000*%
%ADD21C,2.000000*%
%ADD22C,0.400000*%
%ADD23C,0.600000*%
%ADD24C,0.250000*%
%ADD25C,0.254000*%
G04 APERTURE END LIST*
D10*
D11*
X94520000Y111000000D03*
D12*
X98480000Y111000000D03*
D13*
X30920000Y43000000D03*
X32190000Y43000000D03*
X33460000Y43000000D03*
X34730000Y43000000D03*
X36000000Y43000000D03*
X37270000Y43000000D03*
X38540000Y43000000D03*
X39810000Y43000000D03*
X41080000Y43000000D03*
D14*
X102000000Y151000000D03*
D15*
X96000000Y151000000D03*
D16*
X98950000Y155900000D03*
D17*
X23000000Y60450000D03*
X25540000Y60450000D03*
X28080000Y60450000D03*
X30620000Y60450000D03*
X33160000Y60450000D03*
X35700000Y60450000D03*
X38240000Y60450000D03*
X40780000Y60450000D03*
X44844000Y60450000D03*
X47384000Y60450000D03*
X49924000Y60450000D03*
X52464000Y60450000D03*
X55004000Y60450000D03*
X57544000Y60450000D03*
X60084000Y60450000D03*
X62624000Y60450000D03*
X23000000Y108710000D03*
X25540000Y108710000D03*
X28080000Y108710000D03*
X30620000Y108710000D03*
X33160000Y108710000D03*
X35700000Y108710000D03*
X40780000Y108710000D03*
X43320000Y108710000D03*
X45860000Y108710000D03*
X48400000Y108710000D03*
X50940000Y108710000D03*
X53480000Y108710000D03*
D18*
X101000000Y115000000D03*
X72500000Y55750000D03*
X98500000Y88750000D03*
X94500000Y85250000D03*
X75000000Y78750000D03*
X101250000Y133000000D03*
X87500000Y103500000D03*
X80000000Y80250000D03*
X101000000Y118750000D03*
X80000000Y77750000D03*
X76750000Y88750000D03*
X74625800Y90000000D03*
X102450000Y87950000D03*
X44750000Y49500000D03*
X76500000Y101300000D03*
X67000000Y64250000D03*
X67000000Y53500000D03*
X73000000Y95000000D03*
X82500000Y87250000D03*
X99500000Y121750000D03*
X103000000Y121750000D03*
X99750000Y120750000D03*
X103000000Y120750000D03*
X67500001Y80750000D03*
X66050020Y54750000D03*
X78800020Y77000000D03*
X85750000Y61000000D03*
X79500000Y59750000D03*
X83750000Y59750000D03*
X89886410Y84349980D03*
X74750000Y29500000D03*
X90830000Y78330000D03*
X96500000Y30000000D03*
X91000000Y66250000D03*
X92600000Y89750000D03*
X57000000Y41000000D03*
X85250000Y56250000D03*
X83000000Y54000000D03*
X58000000Y40000000D03*
X85750000Y54750000D03*
X83500000Y52500000D03*
X39000000Y18250000D03*
X74881201Y94299980D03*
X34000000Y13500000D03*
X79500000Y84750000D03*
X68400000Y13100000D03*
X93500000Y58000000D03*
X92000000Y58000000D03*
X54400000Y11100000D03*
X87500000Y74500000D03*
X89000000Y31500000D03*
X86500000Y78500006D03*
X82500000Y38000000D03*
X92000000Y74400000D03*
X102655629Y41155629D03*
X87000000Y44600000D03*
X87000000Y60900000D03*
X89000000Y79000000D03*
X86000000Y13000000D03*
X92000000Y77000000D03*
X99500000Y13000000D03*
X98500000Y70000000D03*
X74500316Y90864492D03*
X97011410Y86238590D03*
X81000000Y88049980D03*
X99250000Y69250000D03*
X98250000Y86000000D03*
D19*
X101250000Y133000000D02*
X98499999Y130249999D01*
X98499999Y130249999D02*
X98499999Y117500001D01*
X98499999Y117500001D02*
X101000000Y115000000D01*
D20*
X74250000Y57500000D02*
X72500000Y55750000D01*
X74250000Y57500000D02*
X76000000Y59250000D01*
X76000000Y59250000D02*
X76000000Y77750000D01*
X76000000Y77750000D02*
X75000000Y78750000D01*
X98000000Y88750000D02*
X98500000Y88750000D01*
X94500000Y85250000D02*
X98000000Y88750000D01*
D19*
X47250000Y105250000D02*
X60250000Y105250000D01*
X60250000Y105250000D02*
X76500000Y105250000D01*
X60084000Y60450000D02*
X60084000Y105084000D01*
X60084000Y105084000D02*
X60250000Y105250000D01*
X47250000Y105250000D02*
X45860000Y106640000D01*
X45860000Y106640000D02*
X45860000Y108710000D01*
X102450000Y87950000D02*
X102450000Y104510000D01*
X102450000Y104510000D02*
X98480000Y108480000D01*
X76500000Y105250000D02*
X87500000Y105250000D01*
X87500000Y105250000D02*
X95250000Y105250000D01*
D20*
X87500000Y103500000D02*
X87500000Y105250000D01*
D19*
X95250000Y105250000D02*
X98480000Y108480000D01*
X98480000Y108480000D02*
X98480000Y111000000D01*
D21*
X105500000Y147500000D02*
X105500000Y118500000D01*
X105500000Y118500000D02*
X105500000Y113500000D01*
D20*
X101000000Y118750000D02*
X105250000Y118750000D01*
X105250000Y118750000D02*
X105500000Y118500000D01*
D21*
X105500000Y113500000D02*
X103000000Y111000000D01*
X103000000Y111000000D02*
X98480000Y111000000D01*
X102000000Y151000000D02*
X102000000Y152850000D01*
X102000000Y152850000D02*
X98950000Y155900000D01*
X102000000Y151000000D02*
X105500000Y147500000D01*
D20*
X44750000Y49500000D02*
X39430000Y49500000D01*
X39430000Y49500000D02*
X34730000Y44800000D01*
X34730000Y44800000D02*
X34730000Y43000000D01*
X55634000Y55500000D02*
X50750000Y55500000D01*
X50750000Y55500000D02*
X44750000Y49500000D01*
X60084000Y60450000D02*
X60084000Y59950000D01*
X60084000Y59950000D02*
X55634000Y55500000D01*
X80000000Y77750000D02*
X80000000Y80250000D01*
D22*
X76000000Y90000000D02*
X76750000Y89250000D01*
X76750000Y89250000D02*
X76750000Y88750000D01*
X74625800Y90000000D02*
X76000000Y90000000D01*
D20*
X76500000Y101300000D02*
X76500000Y105250000D01*
D23*
X67000000Y53500000D02*
X67000000Y64250000D01*
D22*
X75174264Y95000000D02*
X73000000Y95000000D01*
X82500000Y87250000D02*
X82500000Y87674264D01*
X82500000Y87674264D02*
X75174264Y95000000D01*
X99500000Y121750000D02*
X103000000Y121750000D01*
D24*
X102950010Y121799990D02*
X103000000Y121750000D01*
D22*
X103000000Y120750000D02*
X99750000Y120750000D01*
D23*
X66050020Y79300019D02*
X67200002Y80450001D01*
X67200002Y80450001D02*
X67500001Y80750000D01*
X66050020Y54750000D02*
X66050020Y79300019D01*
X79100019Y76700001D02*
X78800020Y77000000D01*
X85750000Y70050020D02*
X79100019Y76700001D01*
X85750000Y61000000D02*
X85750000Y70050020D01*
D21*
X96000000Y151000000D02*
X94500000Y149500000D01*
X94500000Y149500000D02*
X94500000Y149000000D01*
X94500000Y149000000D02*
X94520000Y148980000D01*
X94520000Y148980000D02*
X94520000Y111000000D01*
D19*
X94500000Y111000000D02*
X91750000Y113750000D01*
X91750000Y113750000D02*
X51250000Y113750000D01*
X51250000Y113750000D02*
X48370000Y110870000D01*
X48370000Y110870000D02*
X48370000Y108760000D01*
D23*
X79500000Y59750000D02*
X83750000Y59750000D01*
X78000000Y81500000D02*
X80849980Y84349980D01*
X74750000Y29500000D02*
X78000000Y32750000D01*
X78000000Y32750000D02*
X78000000Y81500000D01*
X80849980Y84349980D02*
X89462146Y84349980D01*
X89462146Y84349980D02*
X89886410Y84349980D01*
X90830000Y78330000D02*
X90000000Y77500000D01*
X90000000Y72500000D02*
X96500000Y66000000D01*
X90000000Y77500000D02*
X90000000Y72500000D01*
X96500000Y66000000D02*
X96500000Y30424264D01*
X96500000Y30424264D02*
X96500000Y30000000D01*
D22*
X91000000Y66674264D02*
X91000000Y66250000D01*
X91000000Y68858578D02*
X91000000Y66674264D01*
X88299990Y71558588D02*
X91000000Y68858578D01*
X88299989Y79289954D02*
X88299990Y71558588D01*
X92600000Y83589965D02*
X88299989Y79289954D01*
X92600000Y89750000D02*
X92600000Y83589965D01*
D23*
X57000000Y41000000D02*
X33860000Y41000000D01*
X33860000Y41000000D02*
X33460000Y41400000D01*
X33460000Y41400000D02*
X33460000Y43000000D01*
X83000000Y54000000D02*
X85250000Y56250000D01*
X57575736Y40000000D02*
X58000000Y40000000D01*
X33590000Y40000000D02*
X57575736Y40000000D01*
X32190000Y41400000D02*
X33590000Y40000000D01*
X32190000Y43000000D02*
X32190000Y41400000D01*
X83500000Y52500000D02*
X85750000Y54750000D01*
X39000000Y18250000D02*
X65250000Y44500000D01*
X65250000Y44500000D02*
X65250000Y84668779D01*
X65250000Y84668779D02*
X74581202Y93999981D01*
X74581202Y93999981D02*
X74881201Y94299980D01*
X79500000Y84750000D02*
X77000000Y82250000D01*
X77000000Y82250000D02*
X77000000Y54700000D01*
X77000000Y54700000D02*
X35800000Y13500000D01*
X35800000Y13500000D02*
X34000000Y13500000D01*
X68400000Y13100000D02*
X84100000Y13100000D01*
X84100000Y13100000D02*
X93500000Y22500000D01*
X93500000Y22500000D02*
X93500000Y58000000D01*
X54400000Y11100000D02*
X63600000Y11100000D01*
X63600000Y11100000D02*
X67000000Y14500000D01*
X83000000Y14500000D02*
X67000000Y14500000D01*
X92000000Y23500000D02*
X83000000Y14500000D01*
X92000000Y58000000D02*
X92000000Y23500000D01*
X89000000Y31500000D02*
X91199990Y33699990D01*
X91199990Y33699990D02*
X91199990Y56800010D01*
X90000000Y68868616D02*
X87500000Y71368616D01*
X91199990Y56800010D02*
X90000000Y58000000D01*
X87500000Y71368616D02*
X87500000Y74500000D01*
X90000000Y58000000D02*
X90000000Y68868616D01*
X82500000Y38000000D02*
X89000000Y44500000D01*
X86500000Y78075742D02*
X86500000Y78500006D01*
X86500000Y71237232D02*
X86500000Y78075742D01*
X89000000Y68737232D02*
X86500000Y71237232D01*
X89000000Y44500000D02*
X89000000Y68737232D01*
X102655629Y63744371D02*
X92000000Y74400000D01*
X102655629Y41155629D02*
X102655629Y63744371D01*
X87000000Y45100000D02*
X87000000Y60900000D01*
X87000000Y44700000D02*
X87000000Y45100000D01*
X87000000Y45100000D02*
X87000000Y44600000D01*
X86000000Y13000000D02*
X86500000Y13000000D01*
X89000000Y72000000D02*
X89000000Y79000000D01*
X86500000Y13000000D02*
X94300010Y20800010D01*
X94300010Y20800010D02*
X94300010Y66699990D01*
X94300010Y66699990D02*
X89000000Y72000000D01*
X99500000Y13000000D02*
X99500000Y64500000D01*
X91000000Y73000000D02*
X91000000Y75000000D01*
X99500000Y64500000D02*
X91000000Y73000000D01*
X91000000Y75000000D02*
X92000000Y76000000D01*
X92000000Y76000000D02*
X92000000Y77000000D01*
D22*
X98500000Y70000000D02*
X98500000Y84750000D01*
X98500000Y84750000D02*
X97311409Y85938591D01*
X97311409Y85938591D02*
X97011410Y86238590D01*
X74924580Y90864492D02*
X74500316Y90864492D01*
X78185488Y90864492D02*
X74924580Y90864492D01*
X81000000Y88049980D02*
X78185488Y90864492D01*
X98250000Y86000000D02*
X99250000Y85000000D01*
X99250000Y85000000D02*
X99250000Y69250000D01*
D25*
G36*
X11503340Y168340810D02*
X10873718Y166824513D01*
X10872285Y165182690D01*
X11499259Y163665296D01*
X12659190Y162503340D01*
X14175487Y161873718D01*
X15817310Y161872285D01*
X17334704Y162499259D01*
X18496660Y163659190D01*
X19126282Y165175487D01*
X19127715Y166817310D01*
X18500741Y168334704D01*
X17547110Y169290000D01*
X83454187Y169290000D01*
X82503340Y168340810D01*
X81873718Y166824513D01*
X81872285Y165182690D01*
X82499259Y163665296D01*
X83659190Y162503340D01*
X85175487Y161873718D01*
X86817310Y161872285D01*
X88334704Y162499259D01*
X89496660Y163659190D01*
X90126282Y165175487D01*
X90127715Y166817310D01*
X89500741Y168334704D01*
X88547110Y169290000D01*
X103482242Y169290000D01*
X102873718Y167824513D01*
X102872285Y166182690D01*
X103499259Y164665296D01*
X104659190Y163503340D01*
X106175487Y162873718D01*
X107817310Y162872285D01*
X109290000Y163480788D01*
X109290000Y98569930D01*
X109255074Y98394345D01*
X109195225Y98304774D01*
X109105655Y98244926D01*
X108930070Y98210000D01*
X105000000Y98210000D01*
X104931416Y98196358D01*
X104478804Y98120238D01*
X104406632Y98090343D01*
X104222862Y98014223D01*
X103898438Y97797451D01*
X103755367Y97654379D01*
X103702549Y97601561D01*
X103485776Y97277138D01*
X103435581Y97155954D01*
X103379762Y97021196D01*
X103303642Y96638513D01*
X103303642Y96568584D01*
X103290000Y96500000D01*
X103290000Y64432290D01*
X99407428Y68314862D01*
X99435167Y68314838D01*
X99778943Y68456883D01*
X100042192Y68719673D01*
X100184838Y69063201D01*
X100185162Y69435167D01*
X100085000Y69677578D01*
X100085000Y85000000D01*
X100079711Y85026588D01*
X100021440Y85319540D01*
X99840434Y85590434D01*
X99142535Y86288333D01*
X99043117Y86528943D01*
X98780327Y86792192D01*
X98436799Y86934838D01*
X98064833Y86935162D01*
X97762071Y86810063D01*
X97643027Y86929315D01*
X98428711Y87715000D01*
X98500000Y87715000D01*
X98896077Y87793785D01*
X99231856Y88018144D01*
X99456215Y88353923D01*
X99535000Y88750000D01*
X99456215Y89146077D01*
X99231856Y89481856D01*
X98896077Y89706215D01*
X98500000Y89785000D01*
X98000000Y89785000D01*
X97603922Y89706215D01*
X97469429Y89616349D01*
X97268144Y89481856D01*
X97268142Y89481853D01*
X93768144Y85981856D01*
X93543785Y85646077D01*
X93464999Y85250000D01*
X93543785Y84853923D01*
X93768144Y84518144D01*
X94103923Y84293785D01*
X94500000Y84214999D01*
X94896077Y84293785D01*
X95231856Y84518144D01*
X96320736Y85607025D01*
X96481083Y85446398D01*
X96723320Y85345812D01*
X97665000Y84404131D01*
X97665000Y70427234D01*
X97565162Y70186799D01*
X97565136Y70157154D01*
X92661436Y75060854D01*
X92530327Y75192192D01*
X92519131Y75196841D01*
X92661145Y75338855D01*
X92677831Y75363827D01*
X92863827Y75642191D01*
X92902413Y75836174D01*
X92935001Y76000000D01*
X92935000Y76000005D01*
X92935000Y76999184D01*
X92935162Y77185167D01*
X92793117Y77528943D01*
X92530327Y77792192D01*
X92186799Y77934838D01*
X91814833Y77935162D01*
X91650207Y77867140D01*
X91764838Y78143201D01*
X91765162Y78515167D01*
X91623117Y78858943D01*
X91360327Y79122192D01*
X91016799Y79264838D01*
X90644833Y79265162D01*
X90301057Y79123117D01*
X90037808Y78860327D01*
X90037645Y78859935D01*
X89935000Y78757290D01*
X89935000Y78999184D01*
X89935162Y79185167D01*
X89793117Y79528943D01*
X89756513Y79565610D01*
X93190434Y82999531D01*
X93314360Y83185000D01*
X93371439Y83270424D01*
X93435000Y83589965D01*
X93435000Y89322766D01*
X93534838Y89563201D01*
X93535162Y89935167D01*
X93393117Y90278943D01*
X93130327Y90542192D01*
X92786799Y90684838D01*
X92414833Y90685162D01*
X92071057Y90543117D01*
X91807808Y90280327D01*
X91665162Y89936799D01*
X91664838Y89564833D01*
X91765000Y89322422D01*
X91765000Y83935833D01*
X87709555Y79880388D01*
X87528550Y79609495D01*
X87464989Y79289954D01*
X87464989Y75435031D01*
X87435000Y75435057D01*
X87435000Y78499190D01*
X87435162Y78685173D01*
X87293117Y79028949D01*
X87030327Y79292198D01*
X86686799Y79434844D01*
X86314833Y79435168D01*
X85971057Y79293123D01*
X85707808Y79030333D01*
X85565162Y78686805D01*
X85564838Y78314839D01*
X85565000Y78314447D01*
X85565000Y71557310D01*
X79461456Y77660854D01*
X79330347Y77792192D01*
X78986819Y77934838D01*
X78935000Y77934883D01*
X78935000Y81112710D01*
X81237270Y83414980D01*
X89885594Y83414980D01*
X90071577Y83414818D01*
X90415353Y83556863D01*
X90678602Y83819653D01*
X90821248Y84163181D01*
X90821572Y84535147D01*
X90679527Y84878923D01*
X90416737Y85142172D01*
X90073209Y85284818D01*
X89701243Y85285142D01*
X89700851Y85284980D01*
X80849980Y85284980D01*
X80492171Y85213807D01*
X80357274Y85123672D01*
X80293117Y85278943D01*
X80030327Y85542192D01*
X79686799Y85684838D01*
X79314833Y85685162D01*
X78971057Y85543117D01*
X78707808Y85280327D01*
X78707645Y85279935D01*
X76338855Y82911145D01*
X76136173Y82607809D01*
X76065000Y82250000D01*
X76065000Y79148712D01*
X75731856Y79481856D01*
X75396077Y79706215D01*
X75000000Y79785001D01*
X74603923Y79706215D01*
X74268144Y79481856D01*
X74043785Y79146077D01*
X73964999Y78750000D01*
X74043785Y78353923D01*
X74268144Y78018144D01*
X74965000Y77321289D01*
X74965000Y59678711D01*
X73518144Y58231856D01*
X73518142Y58231853D01*
X71768144Y56481856D01*
X71543785Y56146077D01*
X71464999Y55750000D01*
X71543785Y55353923D01*
X71768144Y55018144D01*
X72103923Y54793785D01*
X72500000Y54714999D01*
X72896077Y54793785D01*
X73231856Y55018144D01*
X74981853Y56768142D01*
X74981856Y56768144D01*
X76065000Y57851289D01*
X76065000Y55087290D01*
X66185000Y45207290D01*
X66185000Y53024018D01*
X66206883Y52971057D01*
X66469673Y52707808D01*
X66813201Y52565162D01*
X67185167Y52564838D01*
X67528943Y52706883D01*
X67792192Y52969673D01*
X67934838Y53313201D01*
X67935162Y53685167D01*
X67935000Y53685559D01*
X67935000Y60007381D01*
X69024613Y60007381D01*
X69364155Y59185628D01*
X69992321Y58556364D01*
X70813481Y58215389D01*
X71702619Y58214613D01*
X72524372Y58554155D01*
X73153636Y59182321D01*
X73494611Y60003481D01*
X73495387Y60892619D01*
X73155845Y61714372D01*
X72527679Y62343636D01*
X71706519Y62684611D01*
X70817381Y62685387D01*
X69995628Y62345845D01*
X69366364Y61717679D01*
X69025389Y60896519D01*
X69024613Y60007381D01*
X67935000Y60007381D01*
X67935000Y64249184D01*
X67935162Y64435167D01*
X67793117Y64778943D01*
X67530327Y65042192D01*
X67186799Y65184838D01*
X66985020Y65185014D01*
X66985020Y78912729D01*
X68160855Y80088564D01*
X68292193Y80219673D01*
X68434839Y80563201D01*
X68435163Y80935167D01*
X68293118Y81278943D01*
X68030328Y81542192D01*
X67686800Y81684838D01*
X67314834Y81685162D01*
X66971058Y81543117D01*
X66707809Y81280327D01*
X66707646Y81279935D01*
X66185000Y80757289D01*
X66185000Y84281489D01*
X75242347Y93338836D01*
X75448454Y93544942D01*
X77293904Y91699492D01*
X74927550Y91699492D01*
X74687115Y91799330D01*
X74315149Y91799654D01*
X73971373Y91657609D01*
X73708124Y91394819D01*
X73565478Y91051291D01*
X73565154Y90679325D01*
X73707199Y90335549D01*
X73969989Y90072300D01*
X74313517Y89929654D01*
X74685483Y89929330D01*
X74927894Y90029492D01*
X77839620Y90029492D01*
X80107465Y87761647D01*
X80206883Y87521037D01*
X80469673Y87257788D01*
X80813201Y87115142D01*
X81185167Y87114818D01*
X81528943Y87256863D01*
X81565037Y87292894D01*
X81564838Y87064833D01*
X81706883Y86721057D01*
X81969673Y86457808D01*
X82313201Y86315162D01*
X82685167Y86314838D01*
X83028943Y86456883D01*
X83292192Y86719673D01*
X83434838Y87063201D01*
X83435162Y87435167D01*
X83333729Y87680655D01*
X83271439Y87993805D01*
X83090434Y88264698D01*
X75764698Y95590434D01*
X75493805Y95771439D01*
X75174264Y95835000D01*
X73427234Y95835000D01*
X73186799Y95934838D01*
X72814833Y95935162D01*
X72471057Y95793117D01*
X72207808Y95530327D01*
X72065162Y95186799D01*
X72064838Y94814833D01*
X72206883Y94471057D01*
X72469673Y94207808D01*
X72813201Y94065162D01*
X73185167Y94064838D01*
X73421363Y94162432D01*
X64588855Y85329924D01*
X64386173Y85026588D01*
X64315000Y84668779D01*
X64315000Y44887290D01*
X38339146Y18911436D01*
X38207808Y18780327D01*
X38065162Y18436799D01*
X38064838Y18064833D01*
X38206883Y17721057D01*
X38452610Y17474900D01*
X35412710Y14435000D01*
X34000816Y14435000D01*
X33814833Y14435162D01*
X33471057Y14293117D01*
X33207808Y14030327D01*
X33065162Y13686799D01*
X33064838Y13314833D01*
X33206883Y12971057D01*
X33469673Y12707808D01*
X33813201Y12565162D01*
X34185167Y12564838D01*
X34185559Y12565000D01*
X35800000Y12565000D01*
X36157809Y12636173D01*
X36461145Y12838855D01*
X77065000Y53442710D01*
X77065000Y33137290D01*
X74089146Y30161436D01*
X73957808Y30030327D01*
X73815162Y29686799D01*
X73814838Y29314833D01*
X73956883Y28971057D01*
X74219673Y28707808D01*
X74563201Y28565162D01*
X74935167Y28564838D01*
X75278943Y28706883D01*
X75542192Y28969673D01*
X75542355Y28970065D01*
X78661145Y32088855D01*
X78863827Y32392191D01*
X78935000Y32750000D01*
X78935000Y58992542D01*
X78969673Y58957808D01*
X79313201Y58815162D01*
X79685167Y58814838D01*
X79685559Y58815000D01*
X83749184Y58815000D01*
X83935167Y58814838D01*
X84278943Y58956883D01*
X84542192Y59219673D01*
X84684838Y59563201D01*
X84685162Y59935167D01*
X84543117Y60278943D01*
X84280327Y60542192D01*
X83936799Y60684838D01*
X83564833Y60685162D01*
X83564441Y60685000D01*
X79500816Y60685000D01*
X79314833Y60685162D01*
X78971057Y60543117D01*
X78935000Y60507123D01*
X78935000Y75542730D01*
X84815000Y69662730D01*
X84815000Y61000816D01*
X84814838Y60814833D01*
X84956883Y60471057D01*
X85219673Y60207808D01*
X85563201Y60065162D01*
X85935167Y60064838D01*
X86065000Y60118484D01*
X86065000Y56725982D01*
X86043117Y56778943D01*
X85780327Y57042192D01*
X85436799Y57184838D01*
X85250001Y57185001D01*
X85249999Y57185001D01*
X85064833Y57185162D01*
X84721057Y57043117D01*
X84457808Y56780327D01*
X84457645Y56779934D01*
X82339146Y54661436D01*
X82207808Y54530327D01*
X82065162Y54186799D01*
X82064838Y53814833D01*
X82206883Y53471057D01*
X82469673Y53207808D01*
X82763414Y53085836D01*
X82707808Y53030327D01*
X82565162Y52686799D01*
X82564838Y52314833D01*
X82706883Y51971057D01*
X82969673Y51707808D01*
X83313201Y51565162D01*
X83685167Y51564838D01*
X84028943Y51706883D01*
X84292192Y51969673D01*
X84292355Y51970065D01*
X86065000Y53742711D01*
X86065000Y44600816D01*
X86064838Y44414833D01*
X86206883Y44071057D01*
X86469673Y43807808D01*
X86813201Y43665162D01*
X86842846Y43665136D01*
X81839146Y38661436D01*
X81707808Y38530327D01*
X81565162Y38186799D01*
X81564838Y37814833D01*
X81706883Y37471057D01*
X81969673Y37207808D01*
X82313201Y37065162D01*
X82685167Y37064838D01*
X83028943Y37206883D01*
X83292192Y37469673D01*
X83292355Y37470065D01*
X89661145Y43838855D01*
X89863827Y44142191D01*
X89935000Y44500000D01*
X89935000Y56742710D01*
X90264990Y56412720D01*
X90264990Y34087280D01*
X88339146Y32161436D01*
X88207808Y32030327D01*
X88065162Y31686799D01*
X88064838Y31314833D01*
X88206883Y30971057D01*
X88469673Y30707808D01*
X88813201Y30565162D01*
X89185167Y30564838D01*
X89528943Y30706883D01*
X89792192Y30969673D01*
X89792355Y30970065D01*
X91065000Y32242710D01*
X91065000Y23887290D01*
X82612710Y15435000D01*
X67000000Y15435000D01*
X66642191Y15363827D01*
X66338855Y15161145D01*
X63212710Y12035000D01*
X54400816Y12035000D01*
X54214833Y12035162D01*
X53871057Y11893117D01*
X53607808Y11630327D01*
X53465162Y11286799D01*
X53464838Y10914833D01*
X53606883Y10571057D01*
X53869673Y10307808D01*
X54213201Y10165162D01*
X54585167Y10164838D01*
X54585559Y10165000D01*
X63600000Y10165000D01*
X63957809Y10236173D01*
X64261145Y10438855D01*
X67387290Y13565000D01*
X67580682Y13565000D01*
X67465162Y13286799D01*
X67464838Y12914833D01*
X67606883Y12571057D01*
X67869673Y12307808D01*
X68213201Y12165162D01*
X68585167Y12164838D01*
X68585559Y12165000D01*
X84100000Y12165000D01*
X84457809Y12236173D01*
X84761145Y12438855D01*
X85085973Y12763683D01*
X85206883Y12471057D01*
X85469673Y12207808D01*
X85813201Y12065162D01*
X86185167Y12064838D01*
X86185559Y12065000D01*
X86500000Y12065000D01*
X86857809Y12136173D01*
X87161145Y12338855D01*
X94961155Y20138865D01*
X95163837Y20442201D01*
X95235010Y20800010D01*
X95235010Y65942700D01*
X95565000Y65612710D01*
X95565000Y30000816D01*
X95564838Y29814833D01*
X95706883Y29471057D01*
X95969673Y29207808D01*
X96313201Y29065162D01*
X96685167Y29064838D01*
X97028943Y29206883D01*
X97292192Y29469673D01*
X97434838Y29813201D01*
X97435162Y30185167D01*
X97435000Y30185559D01*
X97435000Y65242710D01*
X98565000Y64112710D01*
X98565000Y13000816D01*
X98564838Y12814833D01*
X98706883Y12471057D01*
X98969673Y12207808D01*
X99313201Y12065162D01*
X99685167Y12064838D01*
X100028943Y12206883D01*
X100292192Y12469673D01*
X100434838Y12813201D01*
X100435162Y13185167D01*
X100435000Y13185559D01*
X100435000Y64500000D01*
X100399564Y64678146D01*
X101720629Y63357081D01*
X101720629Y41156445D01*
X101720467Y40970462D01*
X101862512Y40626686D01*
X102125302Y40363437D01*
X102468830Y40220791D01*
X102840796Y40220467D01*
X103184572Y40362512D01*
X103447821Y40625302D01*
X103590467Y40968830D01*
X103590791Y41340796D01*
X103590629Y41341188D01*
X103590629Y62717466D01*
X103622709Y62685387D01*
X103751989Y62556105D01*
X103914200Y62447718D01*
X103914203Y62447717D01*
X103914204Y62447716D01*
X104170145Y62341702D01*
X104361487Y62303642D01*
X104431416Y62303642D01*
X104500000Y62290000D01*
X109290000Y62290000D01*
X109290000Y6517758D01*
X107824513Y7126282D01*
X106182690Y7127715D01*
X104665296Y6500741D01*
X103503340Y5340810D01*
X102873718Y3824513D01*
X102872285Y2182690D01*
X103480788Y710000D01*
X6517758Y710000D01*
X7126282Y2175487D01*
X7127715Y3817310D01*
X6500741Y5334704D01*
X5340810Y6496660D01*
X3824513Y7126282D01*
X2182690Y7127715D01*
X710000Y6519212D01*
X710000Y43607032D01*
X29860000Y43607032D01*
X29860000Y42392968D01*
X29940688Y41987324D01*
X30170467Y41643435D01*
X30514356Y41413656D01*
X30920000Y41332968D01*
X31255076Y41399619D01*
X31326173Y41042191D01*
X31528855Y40738855D01*
X32928855Y39338855D01*
X33232191Y39136173D01*
X33590000Y39065000D01*
X57999184Y39065000D01*
X58185167Y39064838D01*
X58528943Y39206883D01*
X58792192Y39469673D01*
X58934838Y39813201D01*
X58935162Y40185167D01*
X58793117Y40528943D01*
X58530327Y40792192D01*
X58186799Y40934838D01*
X57934944Y40935057D01*
X57935162Y41185167D01*
X57793117Y41528943D01*
X57530327Y41792192D01*
X57186799Y41934838D01*
X56814833Y41935162D01*
X56814441Y41935000D01*
X42024350Y41935000D01*
X42059312Y41987324D01*
X42140000Y42392968D01*
X42140000Y43607032D01*
X42059312Y44012676D01*
X41829533Y44356565D01*
X41485644Y44586344D01*
X41080000Y44667032D01*
X40674356Y44586344D01*
X40445000Y44433093D01*
X40215644Y44586344D01*
X39810000Y44667032D01*
X39404356Y44586344D01*
X39175000Y44433093D01*
X38945644Y44586344D01*
X38540000Y44667032D01*
X38134356Y44586344D01*
X37905000Y44433093D01*
X37675644Y44586344D01*
X37270000Y44667032D01*
X36864356Y44586344D01*
X36635000Y44433093D01*
X36405644Y44586344D01*
X36000000Y44667032D01*
X35594356Y44586344D01*
X35359201Y44429219D01*
X35020062Y44594540D01*
X34857000Y44467257D01*
X34857000Y43127000D01*
X34877000Y43127000D01*
X34877000Y42873000D01*
X34857000Y42873000D01*
X34857000Y42853000D01*
X34603000Y42853000D01*
X34603000Y42873000D01*
X34583000Y42873000D01*
X34583000Y43127000D01*
X34603000Y43127000D01*
X34603000Y44467257D01*
X34439938Y44594540D01*
X34100799Y44429219D01*
X33865644Y44586344D01*
X33460000Y44667032D01*
X33054356Y44586344D01*
X32825000Y44433093D01*
X32595644Y44586344D01*
X32190000Y44667032D01*
X31784356Y44586344D01*
X31555000Y44433093D01*
X31325644Y44586344D01*
X30920000Y44667032D01*
X30514356Y44586344D01*
X30170467Y44356565D01*
X29940688Y44012676D01*
X29860000Y43607032D01*
X710000Y43607032D01*
X710000Y60987909D01*
X21565000Y60987909D01*
X21565000Y59912091D01*
X21674233Y59362940D01*
X21985302Y58897393D01*
X22450849Y58586324D01*
X23000000Y58477091D01*
X23549151Y58586324D01*
X24014698Y58897393D01*
X24270000Y59279479D01*
X24525302Y58897393D01*
X24990849Y58586324D01*
X25540000Y58477091D01*
X26089151Y58586324D01*
X26554698Y58897393D01*
X26810000Y59279479D01*
X27065302Y58897393D01*
X27530849Y58586324D01*
X28080000Y58477091D01*
X28629151Y58586324D01*
X29094698Y58897393D01*
X29350000Y59279479D01*
X29605302Y58897393D01*
X30070849Y58586324D01*
X30620000Y58477091D01*
X31169151Y58586324D01*
X31634698Y58897393D01*
X31890000Y59279479D01*
X32145302Y58897393D01*
X32610849Y58586324D01*
X33160000Y58477091D01*
X33709151Y58586324D01*
X34174698Y58897393D01*
X34430000Y59279479D01*
X34685302Y58897393D01*
X35150849Y58586324D01*
X35700000Y58477091D01*
X36249151Y58586324D01*
X36714698Y58897393D01*
X36970000Y59279479D01*
X37225302Y58897393D01*
X37690849Y58586324D01*
X38240000Y58477091D01*
X38789151Y58586324D01*
X39254698Y58897393D01*
X39510000Y59279479D01*
X39765302Y58897393D01*
X40230849Y58586324D01*
X40780000Y58477091D01*
X41329151Y58586324D01*
X41794698Y58897393D01*
X42105767Y59362940D01*
X42215000Y59912091D01*
X42215000Y60987909D01*
X43409000Y60987909D01*
X43409000Y59912091D01*
X43518233Y59362940D01*
X43829302Y58897393D01*
X44294849Y58586324D01*
X44844000Y58477091D01*
X45393151Y58586324D01*
X45858698Y58897393D01*
X46114000Y59279479D01*
X46369302Y58897393D01*
X46834849Y58586324D01*
X47384000Y58477091D01*
X47933151Y58586324D01*
X48398698Y58897393D01*
X48654000Y59279479D01*
X48909302Y58897393D01*
X49374849Y58586324D01*
X49924000Y58477091D01*
X50473151Y58586324D01*
X50938698Y58897393D01*
X51194000Y59279479D01*
X51449302Y58897393D01*
X51914849Y58586324D01*
X52464000Y58477091D01*
X53013151Y58586324D01*
X53478698Y58897393D01*
X53734000Y59279479D01*
X53989302Y58897393D01*
X54454849Y58586324D01*
X55004000Y58477091D01*
X55553151Y58586324D01*
X56018698Y58897393D01*
X56274000Y59279479D01*
X56529302Y58897393D01*
X56994849Y58586324D01*
X57544000Y58477091D01*
X58093151Y58586324D01*
X58558698Y58897393D01*
X58812222Y59276818D01*
X59159104Y58845500D01*
X59652181Y58575633D01*
X59734961Y58558096D01*
X59957000Y58680085D01*
X59957000Y60323000D01*
X59937000Y60323000D01*
X59937000Y60577000D01*
X59957000Y60577000D01*
X59957000Y62219915D01*
X60211000Y62219915D01*
X60211000Y60577000D01*
X60231000Y60577000D01*
X60231000Y60323000D01*
X60211000Y60323000D01*
X60211000Y58680085D01*
X60433039Y58558096D01*
X60515819Y58575633D01*
X61008896Y58845500D01*
X61355778Y59276818D01*
X61609302Y58897393D01*
X62074849Y58586324D01*
X62624000Y58477091D01*
X63173151Y58586324D01*
X63638698Y58897393D01*
X63949767Y59362940D01*
X64059000Y59912091D01*
X64059000Y60987909D01*
X63949767Y61537060D01*
X63638698Y62002607D01*
X63173151Y62313676D01*
X62624000Y62422909D01*
X62074849Y62313676D01*
X61609302Y62002607D01*
X61355778Y61623182D01*
X61008896Y62054500D01*
X60515819Y62324367D01*
X60433039Y62341904D01*
X60211000Y62219915D01*
X59957000Y62219915D01*
X59734961Y62341904D01*
X59652181Y62324367D01*
X59159104Y62054500D01*
X58812222Y61623182D01*
X58558698Y62002607D01*
X58093151Y62313676D01*
X57544000Y62422909D01*
X56994849Y62313676D01*
X56529302Y62002607D01*
X56274000Y61620521D01*
X56018698Y62002607D01*
X55553151Y62313676D01*
X55004000Y62422909D01*
X54454849Y62313676D01*
X53989302Y62002607D01*
X53734000Y61620521D01*
X53478698Y62002607D01*
X53013151Y62313676D01*
X52464000Y62422909D01*
X51914849Y62313676D01*
X51449302Y62002607D01*
X51194000Y61620521D01*
X50938698Y62002607D01*
X50473151Y62313676D01*
X49924000Y62422909D01*
X49374849Y62313676D01*
X48909302Y62002607D01*
X48654000Y61620521D01*
X48398698Y62002607D01*
X47933151Y62313676D01*
X47384000Y62422909D01*
X46834849Y62313676D01*
X46369302Y62002607D01*
X46114000Y61620521D01*
X45858698Y62002607D01*
X45393151Y62313676D01*
X44844000Y62422909D01*
X44294849Y62313676D01*
X43829302Y62002607D01*
X43518233Y61537060D01*
X43409000Y60987909D01*
X42215000Y60987909D01*
X42105767Y61537060D01*
X41794698Y62002607D01*
X41329151Y62313676D01*
X40780000Y62422909D01*
X40230849Y62313676D01*
X39765302Y62002607D01*
X39510000Y61620521D01*
X39254698Y62002607D01*
X38789151Y62313676D01*
X38240000Y62422909D01*
X37690849Y62313676D01*
X37225302Y62002607D01*
X36970000Y61620521D01*
X36714698Y62002607D01*
X36249151Y62313676D01*
X35700000Y62422909D01*
X35150849Y62313676D01*
X34685302Y62002607D01*
X34430000Y61620521D01*
X34174698Y62002607D01*
X33709151Y62313676D01*
X33160000Y62422909D01*
X32610849Y62313676D01*
X32145302Y62002607D01*
X31890000Y61620521D01*
X31634698Y62002607D01*
X31169151Y62313676D01*
X30620000Y62422909D01*
X30070849Y62313676D01*
X29605302Y62002607D01*
X29350000Y61620521D01*
X29094698Y62002607D01*
X28629151Y62313676D01*
X28080000Y62422909D01*
X27530849Y62313676D01*
X27065302Y62002607D01*
X26810000Y61620521D01*
X26554698Y62002607D01*
X26089151Y62313676D01*
X25540000Y62422909D01*
X24990849Y62313676D01*
X24525302Y62002607D01*
X24270000Y61620521D01*
X24014698Y62002607D01*
X23549151Y62313676D01*
X23000000Y62422909D01*
X22450849Y62313676D01*
X21985302Y62002607D01*
X21674233Y61537060D01*
X21565000Y60987909D01*
X710000Y60987909D01*
X710000Y75247381D01*
X18224613Y75247381D01*
X18564155Y74425628D01*
X19192321Y73796364D01*
X20013481Y73455389D01*
X20902619Y73454613D01*
X21724372Y73794155D01*
X22353636Y74422321D01*
X22694611Y75243481D01*
X22695387Y76132619D01*
X22355845Y76954372D01*
X21727679Y77583636D01*
X20906519Y77924611D01*
X20017381Y77925387D01*
X19195628Y77585845D01*
X18566364Y76957679D01*
X18225389Y76136519D01*
X18224613Y75247381D01*
X710000Y75247381D01*
X710000Y103187381D01*
X18224613Y103187381D01*
X18564155Y102365628D01*
X19192321Y101736364D01*
X20013481Y101395389D01*
X20902619Y101394613D01*
X21724372Y101734155D01*
X22353636Y102362321D01*
X22694611Y103183481D01*
X22695387Y104072619D01*
X22355845Y104894372D01*
X21727679Y105523636D01*
X20906519Y105864611D01*
X20017381Y105865387D01*
X19195628Y105525845D01*
X18566364Y104897679D01*
X18225389Y104076519D01*
X18224613Y103187381D01*
X710000Y103187381D01*
X710000Y109247909D01*
X21565000Y109247909D01*
X21565000Y108172091D01*
X21674233Y107622940D01*
X21985302Y107157393D01*
X22450849Y106846324D01*
X23000000Y106737091D01*
X23549151Y106846324D01*
X24014698Y107157393D01*
X24270000Y107539479D01*
X24525302Y107157393D01*
X24990849Y106846324D01*
X25540000Y106737091D01*
X26089151Y106846324D01*
X26554698Y107157393D01*
X26810000Y107539479D01*
X27065302Y107157393D01*
X27530849Y106846324D01*
X28080000Y106737091D01*
X28629151Y106846324D01*
X29094698Y107157393D01*
X29350000Y107539479D01*
X29605302Y107157393D01*
X30070849Y106846324D01*
X30620000Y106737091D01*
X31169151Y106846324D01*
X31634698Y107157393D01*
X31890000Y107539479D01*
X32145302Y107157393D01*
X32610849Y106846324D01*
X33160000Y106737091D01*
X33709151Y106846324D01*
X34174698Y107157393D01*
X34430000Y107539479D01*
X34685302Y107157393D01*
X35150849Y106846324D01*
X35700000Y106737091D01*
X36249151Y106846324D01*
X36714698Y107157393D01*
X37025767Y107622940D01*
X37135000Y108172091D01*
X37135000Y109247909D01*
X39345000Y109247909D01*
X39345000Y108172091D01*
X39454233Y107622940D01*
X39765302Y107157393D01*
X40230849Y106846324D01*
X40780000Y106737091D01*
X41329151Y106846324D01*
X41794698Y107157393D01*
X42048222Y107536818D01*
X42395104Y107105500D01*
X42888181Y106835633D01*
X42970961Y106818096D01*
X43193000Y106940085D01*
X43193000Y108583000D01*
X43447000Y108583000D01*
X43447000Y106940085D01*
X43669039Y106818096D01*
X43751819Y106835633D01*
X44244896Y107105500D01*
X44590000Y107534607D01*
X44935104Y107105500D01*
X45428181Y106835633D01*
X45510961Y106818096D01*
X45733000Y106940085D01*
X45733000Y108583000D01*
X43447000Y108583000D01*
X43193000Y108583000D01*
X43173000Y108583000D01*
X43173000Y108837000D01*
X43193000Y108837000D01*
X43193000Y110479915D01*
X43447000Y110479915D01*
X43447000Y108837000D01*
X45733000Y108837000D01*
X45733000Y110479915D01*
X45987000Y110479915D01*
X45987000Y108837000D01*
X46007000Y108837000D01*
X46007000Y108583000D01*
X45987000Y108583000D01*
X45987000Y106940085D01*
X46209039Y106818096D01*
X46291819Y106835633D01*
X46784896Y107105500D01*
X47131778Y107536818D01*
X47385302Y107157393D01*
X47850849Y106846324D01*
X48400000Y106737091D01*
X48949151Y106846324D01*
X49414698Y107157393D01*
X49670000Y107539479D01*
X49925302Y107157393D01*
X50390849Y106846324D01*
X50940000Y106737091D01*
X51489151Y106846324D01*
X51954698Y107157393D01*
X52210000Y107539479D01*
X52465302Y107157393D01*
X52930849Y106846324D01*
X53480000Y106737091D01*
X54029151Y106846324D01*
X54494698Y107157393D01*
X54805767Y107622940D01*
X54915000Y108172091D01*
X54915000Y108267381D01*
X70294613Y108267381D01*
X70634155Y107445628D01*
X71262321Y106816364D01*
X72083481Y106475389D01*
X72972619Y106474613D01*
X73794372Y106814155D01*
X74423636Y107442321D01*
X74764611Y108263481D01*
X74765387Y109152619D01*
X74425845Y109974372D01*
X73797679Y110603636D01*
X72976519Y110944611D01*
X72087381Y110945387D01*
X71265628Y110605845D01*
X70636364Y109977679D01*
X70295389Y109156519D01*
X70294613Y108267381D01*
X54915000Y108267381D01*
X54915000Y109247909D01*
X54805767Y109797060D01*
X54494698Y110262607D01*
X54029151Y110573676D01*
X53480000Y110682909D01*
X52930849Y110573676D01*
X52465302Y110262607D01*
X52210000Y109880521D01*
X51954698Y110262607D01*
X51489151Y110573676D01*
X50940000Y110682909D01*
X50390849Y110573676D01*
X49925302Y110262607D01*
X49670000Y109880521D01*
X49505000Y110127461D01*
X49505000Y110399868D01*
X51720132Y112615000D01*
X91279868Y112615000D01*
X92622560Y111272308D01*
X92622560Y109750000D01*
X92666838Y109514683D01*
X92805910Y109298559D01*
X93018110Y109153569D01*
X93270000Y109102560D01*
X95770000Y109102560D01*
X96005317Y109146838D01*
X96221441Y109285910D01*
X96366431Y109498110D01*
X96400567Y109666680D01*
X97326285Y109666680D01*
X97455533Y109373877D01*
X98155806Y109105612D01*
X98905435Y109125750D01*
X99504467Y109373877D01*
X99633715Y109666680D01*
X98480000Y110820395D01*
X97326285Y109666680D01*
X96400567Y109666680D01*
X96417440Y109750000D01*
X96417440Y111324194D01*
X96585612Y111324194D01*
X96605750Y110574565D01*
X96853877Y109975533D01*
X97146680Y109846285D01*
X98300395Y111000000D01*
X98659605Y111000000D01*
X99813320Y109846285D01*
X100106123Y109975533D01*
X100374388Y110675806D01*
X100354250Y111425435D01*
X100106123Y112024467D01*
X99813320Y112153715D01*
X98659605Y111000000D01*
X98300395Y111000000D01*
X97146680Y112153715D01*
X96853877Y112024467D01*
X96585612Y111324194D01*
X96417440Y111324194D01*
X96417440Y112250000D01*
X96401763Y112333320D01*
X97326285Y112333320D01*
X98480000Y111179605D01*
X99633715Y112333320D01*
X99504467Y112626123D01*
X98804194Y112894388D01*
X98054565Y112874250D01*
X97455533Y112626123D01*
X97326285Y112333320D01*
X96401763Y112333320D01*
X96373162Y112485317D01*
X96234090Y112701441D01*
X96155000Y112755481D01*
X96155000Y130249999D01*
X97364999Y130249999D01*
X97364999Y117500001D01*
X97451396Y117065655D01*
X97697433Y116697435D01*
X100197434Y114197434D01*
X100565654Y113951397D01*
X101000000Y113865001D01*
X101434345Y113951397D01*
X101802566Y114197434D01*
X102048603Y114565655D01*
X102134999Y115000000D01*
X102048603Y115434346D01*
X101802566Y115802566D01*
X99634999Y117970133D01*
X99634999Y119815099D01*
X99935167Y119814838D01*
X100177578Y119915000D01*
X102572766Y119915000D01*
X102813201Y119815162D01*
X103185167Y119814838D01*
X103528943Y119956883D01*
X103792192Y120219673D01*
X103934838Y120563201D01*
X103935162Y120935167D01*
X103804931Y121250351D01*
X103934838Y121563201D01*
X103935162Y121935167D01*
X103793117Y122278943D01*
X103530327Y122542192D01*
X103186799Y122684838D01*
X102814833Y122685162D01*
X102572422Y122585000D01*
X99927234Y122585000D01*
X99686799Y122684838D01*
X99634999Y122684883D01*
X99634999Y129779867D01*
X102052566Y132197434D01*
X102298603Y132565655D01*
X102385000Y133000000D01*
X102298603Y133434345D01*
X102052566Y133802566D01*
X101684345Y134048603D01*
X101250000Y134135000D01*
X100815655Y134048603D01*
X100447434Y133802566D01*
X97697433Y131052565D01*
X97451396Y130684345D01*
X97364999Y130249999D01*
X96155000Y130249999D01*
X96155000Y147579515D01*
X96817029Y147711201D01*
X97509673Y148174011D01*
X97972483Y148866655D01*
X98135000Y149683684D01*
X98135000Y150873000D01*
X99865000Y150873000D01*
X99865000Y149873000D01*
X100076118Y149065638D01*
X100580130Y148400524D01*
X101300304Y147978916D01*
X101541167Y147914887D01*
X101873000Y148027835D01*
X101873000Y150873000D01*
X102127000Y150873000D01*
X102127000Y148027835D01*
X102458833Y147914887D01*
X102699696Y147978916D01*
X103419870Y148400524D01*
X103923882Y149065638D01*
X104135000Y149873000D01*
X104135000Y150873000D01*
X102127000Y150873000D01*
X101873000Y150873000D01*
X99865000Y150873000D01*
X98135000Y150873000D01*
X98135000Y152127000D01*
X99865000Y152127000D01*
X99865000Y151127000D01*
X101873000Y151127000D01*
X101873000Y153972165D01*
X102127000Y153972165D01*
X102127000Y151127000D01*
X104135000Y151127000D01*
X104135000Y152127000D01*
X103923882Y152934362D01*
X103419870Y153599476D01*
X102699696Y154021084D01*
X102458833Y154085113D01*
X102127000Y153972165D01*
X101873000Y153972165D01*
X101541167Y154085113D01*
X101300304Y154021084D01*
X100580130Y153599476D01*
X100076118Y152934362D01*
X99865000Y152127000D01*
X98135000Y152127000D01*
X98135000Y152316316D01*
X97972483Y153133345D01*
X97509673Y153825989D01*
X97458176Y153860398D01*
X97823000Y153765000D01*
X98823000Y153765000D01*
X98823000Y155773000D01*
X99077000Y155773000D01*
X99077000Y153765000D01*
X100077000Y153765000D01*
X100884362Y153976118D01*
X101549476Y154480130D01*
X101971084Y155200304D01*
X102035113Y155441167D01*
X101922165Y155773000D01*
X99077000Y155773000D01*
X98823000Y155773000D01*
X95977835Y155773000D01*
X95864887Y155441167D01*
X95928916Y155200304D01*
X96350524Y154480130D01*
X96526839Y154346521D01*
X96000000Y154451316D01*
X95182971Y154288799D01*
X94490327Y153825989D01*
X94027517Y153133345D01*
X93865000Y152316316D01*
X93865000Y151177240D01*
X93343880Y150656120D01*
X92989457Y150125688D01*
X92864999Y149500000D01*
X92865000Y149499995D01*
X92865000Y149000005D01*
X92864999Y149000000D01*
X92885000Y148899449D01*
X92885000Y114220132D01*
X92552566Y114552566D01*
X92532977Y114565655D01*
X92184346Y114798603D01*
X91750000Y114885000D01*
X51250000Y114885000D01*
X50815654Y114798603D01*
X50467023Y114565655D01*
X50447434Y114552566D01*
X47567434Y111672566D01*
X47321397Y111304346D01*
X47235000Y110870000D01*
X47235000Y110037664D01*
X47131778Y109883182D01*
X46784896Y110314500D01*
X46291819Y110584367D01*
X46209039Y110601904D01*
X45987000Y110479915D01*
X45733000Y110479915D01*
X45510961Y110601904D01*
X45428181Y110584367D01*
X44935104Y110314500D01*
X44590000Y109885393D01*
X44244896Y110314500D01*
X43751819Y110584367D01*
X43669039Y110601904D01*
X43447000Y110479915D01*
X43193000Y110479915D01*
X42970961Y110601904D01*
X42888181Y110584367D01*
X42395104Y110314500D01*
X42048222Y109883182D01*
X41794698Y110262607D01*
X41329151Y110573676D01*
X40780000Y110682909D01*
X40230849Y110573676D01*
X39765302Y110262607D01*
X39454233Y109797060D01*
X39345000Y109247909D01*
X37135000Y109247909D01*
X37025767Y109797060D01*
X36714698Y110262607D01*
X36249151Y110573676D01*
X35700000Y110682909D01*
X35150849Y110573676D01*
X34685302Y110262607D01*
X34430000Y109880521D01*
X34174698Y110262607D01*
X33709151Y110573676D01*
X33160000Y110682909D01*
X32610849Y110573676D01*
X32145302Y110262607D01*
X31890000Y109880521D01*
X31634698Y110262607D01*
X31169151Y110573676D01*
X30620000Y110682909D01*
X30070849Y110573676D01*
X29605302Y110262607D01*
X29350000Y109880521D01*
X29094698Y110262607D01*
X28629151Y110573676D01*
X28080000Y110682909D01*
X27530849Y110573676D01*
X27065302Y110262607D01*
X26810000Y109880521D01*
X26554698Y110262607D01*
X26089151Y110573676D01*
X25540000Y110682909D01*
X24990849Y110573676D01*
X24525302Y110262607D01*
X24270000Y109880521D01*
X24014698Y110262607D01*
X23549151Y110573676D01*
X23000000Y110682909D01*
X22450849Y110573676D01*
X21985302Y110262607D01*
X21674233Y109797060D01*
X21565000Y109247909D01*
X710000Y109247909D01*
X710000Y122182690D01*
X10872285Y122182690D01*
X11499259Y120665296D01*
X12659190Y119503340D01*
X14175487Y118873718D01*
X15817310Y118872285D01*
X17334704Y119499259D01*
X18496660Y120659190D01*
X19126282Y122175487D01*
X19126288Y122182690D01*
X81872285Y122182690D01*
X82499259Y120665296D01*
X83659190Y119503340D01*
X85175487Y118873718D01*
X86817310Y118872285D01*
X88334704Y119499259D01*
X89496660Y120659190D01*
X90126282Y122175487D01*
X90127715Y123817310D01*
X89500741Y125334704D01*
X88340810Y126496660D01*
X86824513Y127126282D01*
X85182690Y127127715D01*
X83665296Y126500741D01*
X82503340Y125340810D01*
X81873718Y123824513D01*
X81872285Y122182690D01*
X19126288Y122182690D01*
X19127715Y123817310D01*
X18500741Y125334704D01*
X17340810Y126496660D01*
X15824513Y127126282D01*
X14182690Y127127715D01*
X12665296Y126500741D01*
X11503340Y125340810D01*
X10873718Y123824513D01*
X10872285Y122182690D01*
X710000Y122182690D01*
X710000Y156358833D01*
X95864887Y156358833D01*
X95977835Y156027000D01*
X98823000Y156027000D01*
X98823000Y158035000D01*
X99077000Y158035000D01*
X99077000Y156027000D01*
X101922165Y156027000D01*
X102035113Y156358833D01*
X101971084Y156599696D01*
X101549476Y157319870D01*
X100884362Y157823882D01*
X100077000Y158035000D01*
X99077000Y158035000D01*
X98823000Y158035000D01*
X97823000Y158035000D01*
X97015638Y157823882D01*
X96350524Y157319870D01*
X95928916Y156599696D01*
X95864887Y156358833D01*
X710000Y156358833D01*
X710000Y163482242D01*
X2175487Y162873718D01*
X3817310Y162872285D01*
X5334704Y163499259D01*
X6496660Y164659190D01*
X7126282Y166175487D01*
X7127715Y167817310D01*
X6519212Y169290000D01*
X12454187Y169290000D01*
X11503340Y168340810D01*
X11503340Y168340810D01*
G37*
X11503340Y168340810D02*
X10873718Y166824513D01*
X10872285Y165182690D01*
X11499259Y163665296D01*
X12659190Y162503340D01*
X14175487Y161873718D01*
X15817310Y161872285D01*
X17334704Y162499259D01*
X18496660Y163659190D01*
X19126282Y165175487D01*
X19127715Y166817310D01*
X18500741Y168334704D01*
X17547110Y169290000D01*
X83454187Y169290000D01*
X82503340Y168340810D01*
X81873718Y166824513D01*
X81872285Y165182690D01*
X82499259Y163665296D01*
X83659190Y162503340D01*
X85175487Y161873718D01*
X86817310Y161872285D01*
X88334704Y162499259D01*
X89496660Y163659190D01*
X90126282Y165175487D01*
X90127715Y166817310D01*
X89500741Y168334704D01*
X88547110Y169290000D01*
X103482242Y169290000D01*
X102873718Y167824513D01*
X102872285Y166182690D01*
X103499259Y164665296D01*
X104659190Y163503340D01*
X106175487Y162873718D01*
X107817310Y162872285D01*
X109290000Y163480788D01*
X109290000Y98569930D01*
X109255074Y98394345D01*
X109195225Y98304774D01*
X109105655Y98244926D01*
X108930070Y98210000D01*
X105000000Y98210000D01*
X104931416Y98196358D01*
X104478804Y98120238D01*
X104406632Y98090343D01*
X104222862Y98014223D01*
X103898438Y97797451D01*
X103755367Y97654379D01*
X103702549Y97601561D01*
X103485776Y97277138D01*
X103435581Y97155954D01*
X103379762Y97021196D01*
X103303642Y96638513D01*
X103303642Y96568584D01*
X103290000Y96500000D01*
X103290000Y64432290D01*
X99407428Y68314862D01*
X99435167Y68314838D01*
X99778943Y68456883D01*
X100042192Y68719673D01*
X100184838Y69063201D01*
X100185162Y69435167D01*
X100085000Y69677578D01*
X100085000Y85000000D01*
X100079711Y85026588D01*
X100021440Y85319540D01*
X99840434Y85590434D01*
X99142535Y86288333D01*
X99043117Y86528943D01*
X98780327Y86792192D01*
X98436799Y86934838D01*
X98064833Y86935162D01*
X97762071Y86810063D01*
X97643027Y86929315D01*
X98428711Y87715000D01*
X98500000Y87715000D01*
X98896077Y87793785D01*
X99231856Y88018144D01*
X99456215Y88353923D01*
X99535000Y88750000D01*
X99456215Y89146077D01*
X99231856Y89481856D01*
X98896077Y89706215D01*
X98500000Y89785000D01*
X98000000Y89785000D01*
X97603922Y89706215D01*
X97469429Y89616349D01*
X97268144Y89481856D01*
X97268142Y89481853D01*
X93768144Y85981856D01*
X93543785Y85646077D01*
X93464999Y85250000D01*
X93543785Y84853923D01*
X93768144Y84518144D01*
X94103923Y84293785D01*
X94500000Y84214999D01*
X94896077Y84293785D01*
X95231856Y84518144D01*
X96320736Y85607025D01*
X96481083Y85446398D01*
X96723320Y85345812D01*
X97665000Y84404131D01*
X97665000Y70427234D01*
X97565162Y70186799D01*
X97565136Y70157154D01*
X92661436Y75060854D01*
X92530327Y75192192D01*
X92519131Y75196841D01*
X92661145Y75338855D01*
X92677831Y75363827D01*
X92863827Y75642191D01*
X92902413Y75836174D01*
X92935001Y76000000D01*
X92935000Y76000005D01*
X92935000Y76999184D01*
X92935162Y77185167D01*
X92793117Y77528943D01*
X92530327Y77792192D01*
X92186799Y77934838D01*
X91814833Y77935162D01*
X91650207Y77867140D01*
X91764838Y78143201D01*
X91765162Y78515167D01*
X91623117Y78858943D01*
X91360327Y79122192D01*
X91016799Y79264838D01*
X90644833Y79265162D01*
X90301057Y79123117D01*
X90037808Y78860327D01*
X90037645Y78859935D01*
X89935000Y78757290D01*
X89935000Y78999184D01*
X89935162Y79185167D01*
X89793117Y79528943D01*
X89756513Y79565610D01*
X93190434Y82999531D01*
X93314360Y83185000D01*
X93371439Y83270424D01*
X93435000Y83589965D01*
X93435000Y89322766D01*
X93534838Y89563201D01*
X93535162Y89935167D01*
X93393117Y90278943D01*
X93130327Y90542192D01*
X92786799Y90684838D01*
X92414833Y90685162D01*
X92071057Y90543117D01*
X91807808Y90280327D01*
X91665162Y89936799D01*
X91664838Y89564833D01*
X91765000Y89322422D01*
X91765000Y83935833D01*
X87709555Y79880388D01*
X87528550Y79609495D01*
X87464989Y79289954D01*
X87464989Y75435031D01*
X87435000Y75435057D01*
X87435000Y78499190D01*
X87435162Y78685173D01*
X87293117Y79028949D01*
X87030327Y79292198D01*
X86686799Y79434844D01*
X86314833Y79435168D01*
X85971057Y79293123D01*
X85707808Y79030333D01*
X85565162Y78686805D01*
X85564838Y78314839D01*
X85565000Y78314447D01*
X85565000Y71557310D01*
X79461456Y77660854D01*
X79330347Y77792192D01*
X78986819Y77934838D01*
X78935000Y77934883D01*
X78935000Y81112710D01*
X81237270Y83414980D01*
X89885594Y83414980D01*
X90071577Y83414818D01*
X90415353Y83556863D01*
X90678602Y83819653D01*
X90821248Y84163181D01*
X90821572Y84535147D01*
X90679527Y84878923D01*
X90416737Y85142172D01*
X90073209Y85284818D01*
X89701243Y85285142D01*
X89700851Y85284980D01*
X80849980Y85284980D01*
X80492171Y85213807D01*
X80357274Y85123672D01*
X80293117Y85278943D01*
X80030327Y85542192D01*
X79686799Y85684838D01*
X79314833Y85685162D01*
X78971057Y85543117D01*
X78707808Y85280327D01*
X78707645Y85279935D01*
X76338855Y82911145D01*
X76136173Y82607809D01*
X76065000Y82250000D01*
X76065000Y79148712D01*
X75731856Y79481856D01*
X75396077Y79706215D01*
X75000000Y79785001D01*
X74603923Y79706215D01*
X74268144Y79481856D01*
X74043785Y79146077D01*
X73964999Y78750000D01*
X74043785Y78353923D01*
X74268144Y78018144D01*
X74965000Y77321289D01*
X74965000Y59678711D01*
X73518144Y58231856D01*
X73518142Y58231853D01*
X71768144Y56481856D01*
X71543785Y56146077D01*
X71464999Y55750000D01*
X71543785Y55353923D01*
X71768144Y55018144D01*
X72103923Y54793785D01*
X72500000Y54714999D01*
X72896077Y54793785D01*
X73231856Y55018144D01*
X74981853Y56768142D01*
X74981856Y56768144D01*
X76065000Y57851289D01*
X76065000Y55087290D01*
X66185000Y45207290D01*
X66185000Y53024018D01*
X66206883Y52971057D01*
X66469673Y52707808D01*
X66813201Y52565162D01*
X67185167Y52564838D01*
X67528943Y52706883D01*
X67792192Y52969673D01*
X67934838Y53313201D01*
X67935162Y53685167D01*
X67935000Y53685559D01*
X67935000Y60007381D01*
X69024613Y60007381D01*
X69364155Y59185628D01*
X69992321Y58556364D01*
X70813481Y58215389D01*
X71702619Y58214613D01*
X72524372Y58554155D01*
X73153636Y59182321D01*
X73494611Y60003481D01*
X73495387Y60892619D01*
X73155845Y61714372D01*
X72527679Y62343636D01*
X71706519Y62684611D01*
X70817381Y62685387D01*
X69995628Y62345845D01*
X69366364Y61717679D01*
X69025389Y60896519D01*
X69024613Y60007381D01*
X67935000Y60007381D01*
X67935000Y64249184D01*
X67935162Y64435167D01*
X67793117Y64778943D01*
X67530327Y65042192D01*
X67186799Y65184838D01*
X66985020Y65185014D01*
X66985020Y78912729D01*
X68160855Y80088564D01*
X68292193Y80219673D01*
X68434839Y80563201D01*
X68435163Y80935167D01*
X68293118Y81278943D01*
X68030328Y81542192D01*
X67686800Y81684838D01*
X67314834Y81685162D01*
X66971058Y81543117D01*
X66707809Y81280327D01*
X66707646Y81279935D01*
X66185000Y80757289D01*
X66185000Y84281489D01*
X75242347Y93338836D01*
X75448454Y93544942D01*
X77293904Y91699492D01*
X74927550Y91699492D01*
X74687115Y91799330D01*
X74315149Y91799654D01*
X73971373Y91657609D01*
X73708124Y91394819D01*
X73565478Y91051291D01*
X73565154Y90679325D01*
X73707199Y90335549D01*
X73969989Y90072300D01*
X74313517Y89929654D01*
X74685483Y89929330D01*
X74927894Y90029492D01*
X77839620Y90029492D01*
X80107465Y87761647D01*
X80206883Y87521037D01*
X80469673Y87257788D01*
X80813201Y87115142D01*
X81185167Y87114818D01*
X81528943Y87256863D01*
X81565037Y87292894D01*
X81564838Y87064833D01*
X81706883Y86721057D01*
X81969673Y86457808D01*
X82313201Y86315162D01*
X82685167Y86314838D01*
X83028943Y86456883D01*
X83292192Y86719673D01*
X83434838Y87063201D01*
X83435162Y87435167D01*
X83333729Y87680655D01*
X83271439Y87993805D01*
X83090434Y88264698D01*
X75764698Y95590434D01*
X75493805Y95771439D01*
X75174264Y95835000D01*
X73427234Y95835000D01*
X73186799Y95934838D01*
X72814833Y95935162D01*
X72471057Y95793117D01*
X72207808Y95530327D01*
X72065162Y95186799D01*
X72064838Y94814833D01*
X72206883Y94471057D01*
X72469673Y94207808D01*
X72813201Y94065162D01*
X73185167Y94064838D01*
X73421363Y94162432D01*
X64588855Y85329924D01*
X64386173Y85026588D01*
X64315000Y84668779D01*
X64315000Y44887290D01*
X38339146Y18911436D01*
X38207808Y18780327D01*
X38065162Y18436799D01*
X38064838Y18064833D01*
X38206883Y17721057D01*
X38452610Y17474900D01*
X35412710Y14435000D01*
X34000816Y14435000D01*
X33814833Y14435162D01*
X33471057Y14293117D01*
X33207808Y14030327D01*
X33065162Y13686799D01*
X33064838Y13314833D01*
X33206883Y12971057D01*
X33469673Y12707808D01*
X33813201Y12565162D01*
X34185167Y12564838D01*
X34185559Y12565000D01*
X35800000Y12565000D01*
X36157809Y12636173D01*
X36461145Y12838855D01*
X77065000Y53442710D01*
X77065000Y33137290D01*
X74089146Y30161436D01*
X73957808Y30030327D01*
X73815162Y29686799D01*
X73814838Y29314833D01*
X73956883Y28971057D01*
X74219673Y28707808D01*
X74563201Y28565162D01*
X74935167Y28564838D01*
X75278943Y28706883D01*
X75542192Y28969673D01*
X75542355Y28970065D01*
X78661145Y32088855D01*
X78863827Y32392191D01*
X78935000Y32750000D01*
X78935000Y58992542D01*
X78969673Y58957808D01*
X79313201Y58815162D01*
X79685167Y58814838D01*
X79685559Y58815000D01*
X83749184Y58815000D01*
X83935167Y58814838D01*
X84278943Y58956883D01*
X84542192Y59219673D01*
X84684838Y59563201D01*
X84685162Y59935167D01*
X84543117Y60278943D01*
X84280327Y60542192D01*
X83936799Y60684838D01*
X83564833Y60685162D01*
X83564441Y60685000D01*
X79500816Y60685000D01*
X79314833Y60685162D01*
X78971057Y60543117D01*
X78935000Y60507123D01*
X78935000Y75542730D01*
X84815000Y69662730D01*
X84815000Y61000816D01*
X84814838Y60814833D01*
X84956883Y60471057D01*
X85219673Y60207808D01*
X85563201Y60065162D01*
X85935167Y60064838D01*
X86065000Y60118484D01*
X86065000Y56725982D01*
X86043117Y56778943D01*
X85780327Y57042192D01*
X85436799Y57184838D01*
X85250001Y57185001D01*
X85249999Y57185001D01*
X85064833Y57185162D01*
X84721057Y57043117D01*
X84457808Y56780327D01*
X84457645Y56779934D01*
X82339146Y54661436D01*
X82207808Y54530327D01*
X82065162Y54186799D01*
X82064838Y53814833D01*
X82206883Y53471057D01*
X82469673Y53207808D01*
X82763414Y53085836D01*
X82707808Y53030327D01*
X82565162Y52686799D01*
X82564838Y52314833D01*
X82706883Y51971057D01*
X82969673Y51707808D01*
X83313201Y51565162D01*
X83685167Y51564838D01*
X84028943Y51706883D01*
X84292192Y51969673D01*
X84292355Y51970065D01*
X86065000Y53742711D01*
X86065000Y44600816D01*
X86064838Y44414833D01*
X86206883Y44071057D01*
X86469673Y43807808D01*
X86813201Y43665162D01*
X86842846Y43665136D01*
X81839146Y38661436D01*
X81707808Y38530327D01*
X81565162Y38186799D01*
X81564838Y37814833D01*
X81706883Y37471057D01*
X81969673Y37207808D01*
X82313201Y37065162D01*
X82685167Y37064838D01*
X83028943Y37206883D01*
X83292192Y37469673D01*
X83292355Y37470065D01*
X89661145Y43838855D01*
X89863827Y44142191D01*
X89935000Y44500000D01*
X89935000Y56742710D01*
X90264990Y56412720D01*
X90264990Y34087280D01*
X88339146Y32161436D01*
X88207808Y32030327D01*
X88065162Y31686799D01*
X88064838Y31314833D01*
X88206883Y30971057D01*
X88469673Y30707808D01*
X88813201Y30565162D01*
X89185167Y30564838D01*
X89528943Y30706883D01*
X89792192Y30969673D01*
X89792355Y30970065D01*
X91065000Y32242710D01*
X91065000Y23887290D01*
X82612710Y15435000D01*
X67000000Y15435000D01*
X66642191Y15363827D01*
X66338855Y15161145D01*
X63212710Y12035000D01*
X54400816Y12035000D01*
X54214833Y12035162D01*
X53871057Y11893117D01*
X53607808Y11630327D01*
X53465162Y11286799D01*
X53464838Y10914833D01*
X53606883Y10571057D01*
X53869673Y10307808D01*
X54213201Y10165162D01*
X54585167Y10164838D01*
X54585559Y10165000D01*
X63600000Y10165000D01*
X63957809Y10236173D01*
X64261145Y10438855D01*
X67387290Y13565000D01*
X67580682Y13565000D01*
X67465162Y13286799D01*
X67464838Y12914833D01*
X67606883Y12571057D01*
X67869673Y12307808D01*
X68213201Y12165162D01*
X68585167Y12164838D01*
X68585559Y12165000D01*
X84100000Y12165000D01*
X84457809Y12236173D01*
X84761145Y12438855D01*
X85085973Y12763683D01*
X85206883Y12471057D01*
X85469673Y12207808D01*
X85813201Y12065162D01*
X86185167Y12064838D01*
X86185559Y12065000D01*
X86500000Y12065000D01*
X86857809Y12136173D01*
X87161145Y12338855D01*
X94961155Y20138865D01*
X95163837Y20442201D01*
X95235010Y20800010D01*
X95235010Y65942700D01*
X95565000Y65612710D01*
X95565000Y30000816D01*
X95564838Y29814833D01*
X95706883Y29471057D01*
X95969673Y29207808D01*
X96313201Y29065162D01*
X96685167Y29064838D01*
X97028943Y29206883D01*
X97292192Y29469673D01*
X97434838Y29813201D01*
X97435162Y30185167D01*
X97435000Y30185559D01*
X97435000Y65242710D01*
X98565000Y64112710D01*
X98565000Y13000816D01*
X98564838Y12814833D01*
X98706883Y12471057D01*
X98969673Y12207808D01*
X99313201Y12065162D01*
X99685167Y12064838D01*
X100028943Y12206883D01*
X100292192Y12469673D01*
X100434838Y12813201D01*
X100435162Y13185167D01*
X100435000Y13185559D01*
X100435000Y64500000D01*
X100399564Y64678146D01*
X101720629Y63357081D01*
X101720629Y41156445D01*
X101720467Y40970462D01*
X101862512Y40626686D01*
X102125302Y40363437D01*
X102468830Y40220791D01*
X102840796Y40220467D01*
X103184572Y40362512D01*
X103447821Y40625302D01*
X103590467Y40968830D01*
X103590791Y41340796D01*
X103590629Y41341188D01*
X103590629Y62717466D01*
X103622709Y62685387D01*
X103751989Y62556105D01*
X103914200Y62447718D01*
X103914203Y62447717D01*
X103914204Y62447716D01*
X104170145Y62341702D01*
X104361487Y62303642D01*
X104431416Y62303642D01*
X104500000Y62290000D01*
X109290000Y62290000D01*
X109290000Y6517758D01*
X107824513Y7126282D01*
X106182690Y7127715D01*
X104665296Y6500741D01*
X103503340Y5340810D01*
X102873718Y3824513D01*
X102872285Y2182690D01*
X103480788Y710000D01*
X6517758Y710000D01*
X7126282Y2175487D01*
X7127715Y3817310D01*
X6500741Y5334704D01*
X5340810Y6496660D01*
X3824513Y7126282D01*
X2182690Y7127715D01*
X710000Y6519212D01*
X710000Y43607032D01*
X29860000Y43607032D01*
X29860000Y42392968D01*
X29940688Y41987324D01*
X30170467Y41643435D01*
X30514356Y41413656D01*
X30920000Y41332968D01*
X31255076Y41399619D01*
X31326173Y41042191D01*
X31528855Y40738855D01*
X32928855Y39338855D01*
X33232191Y39136173D01*
X33590000Y39065000D01*
X57999184Y39065000D01*
X58185167Y39064838D01*
X58528943Y39206883D01*
X58792192Y39469673D01*
X58934838Y39813201D01*
X58935162Y40185167D01*
X58793117Y40528943D01*
X58530327Y40792192D01*
X58186799Y40934838D01*
X57934944Y40935057D01*
X57935162Y41185167D01*
X57793117Y41528943D01*
X57530327Y41792192D01*
X57186799Y41934838D01*
X56814833Y41935162D01*
X56814441Y41935000D01*
X42024350Y41935000D01*
X42059312Y41987324D01*
X42140000Y42392968D01*
X42140000Y43607032D01*
X42059312Y44012676D01*
X41829533Y44356565D01*
X41485644Y44586344D01*
X41080000Y44667032D01*
X40674356Y44586344D01*
X40445000Y44433093D01*
X40215644Y44586344D01*
X39810000Y44667032D01*
X39404356Y44586344D01*
X39175000Y44433093D01*
X38945644Y44586344D01*
X38540000Y44667032D01*
X38134356Y44586344D01*
X37905000Y44433093D01*
X37675644Y44586344D01*
X37270000Y44667032D01*
X36864356Y44586344D01*
X36635000Y44433093D01*
X36405644Y44586344D01*
X36000000Y44667032D01*
X35594356Y44586344D01*
X35359201Y44429219D01*
X35020062Y44594540D01*
X34857000Y44467257D01*
X34857000Y43127000D01*
X34877000Y43127000D01*
X34877000Y42873000D01*
X34857000Y42873000D01*
X34857000Y42853000D01*
X34603000Y42853000D01*
X34603000Y42873000D01*
X34583000Y42873000D01*
X34583000Y43127000D01*
X34603000Y43127000D01*
X34603000Y44467257D01*
X34439938Y44594540D01*
X34100799Y44429219D01*
X33865644Y44586344D01*
X33460000Y44667032D01*
X33054356Y44586344D01*
X32825000Y44433093D01*
X32595644Y44586344D01*
X32190000Y44667032D01*
X31784356Y44586344D01*
X31555000Y44433093D01*
X31325644Y44586344D01*
X30920000Y44667032D01*
X30514356Y44586344D01*
X30170467Y44356565D01*
X29940688Y44012676D01*
X29860000Y43607032D01*
X710000Y43607032D01*
X710000Y60987909D01*
X21565000Y60987909D01*
X21565000Y59912091D01*
X21674233Y59362940D01*
X21985302Y58897393D01*
X22450849Y58586324D01*
X23000000Y58477091D01*
X23549151Y58586324D01*
X24014698Y58897393D01*
X24270000Y59279479D01*
X24525302Y58897393D01*
X24990849Y58586324D01*
X25540000Y58477091D01*
X26089151Y58586324D01*
X26554698Y58897393D01*
X26810000Y59279479D01*
X27065302Y58897393D01*
X27530849Y58586324D01*
X28080000Y58477091D01*
X28629151Y58586324D01*
X29094698Y58897393D01*
X29350000Y59279479D01*
X29605302Y58897393D01*
X30070849Y58586324D01*
X30620000Y58477091D01*
X31169151Y58586324D01*
X31634698Y58897393D01*
X31890000Y59279479D01*
X32145302Y58897393D01*
X32610849Y58586324D01*
X33160000Y58477091D01*
X33709151Y58586324D01*
X34174698Y58897393D01*
X34430000Y59279479D01*
X34685302Y58897393D01*
X35150849Y58586324D01*
X35700000Y58477091D01*
X36249151Y58586324D01*
X36714698Y58897393D01*
X36970000Y59279479D01*
X37225302Y58897393D01*
X37690849Y58586324D01*
X38240000Y58477091D01*
X38789151Y58586324D01*
X39254698Y58897393D01*
X39510000Y59279479D01*
X39765302Y58897393D01*
X40230849Y58586324D01*
X40780000Y58477091D01*
X41329151Y58586324D01*
X41794698Y58897393D01*
X42105767Y59362940D01*
X42215000Y59912091D01*
X42215000Y60987909D01*
X43409000Y60987909D01*
X43409000Y59912091D01*
X43518233Y59362940D01*
X43829302Y58897393D01*
X44294849Y58586324D01*
X44844000Y58477091D01*
X45393151Y58586324D01*
X45858698Y58897393D01*
X46114000Y59279479D01*
X46369302Y58897393D01*
X46834849Y58586324D01*
X47384000Y58477091D01*
X47933151Y58586324D01*
X48398698Y58897393D01*
X48654000Y59279479D01*
X48909302Y58897393D01*
X49374849Y58586324D01*
X49924000Y58477091D01*
X50473151Y58586324D01*
X50938698Y58897393D01*
X51194000Y59279479D01*
X51449302Y58897393D01*
X51914849Y58586324D01*
X52464000Y58477091D01*
X53013151Y58586324D01*
X53478698Y58897393D01*
X53734000Y59279479D01*
X53989302Y58897393D01*
X54454849Y58586324D01*
X55004000Y58477091D01*
X55553151Y58586324D01*
X56018698Y58897393D01*
X56274000Y59279479D01*
X56529302Y58897393D01*
X56994849Y58586324D01*
X57544000Y58477091D01*
X58093151Y58586324D01*
X58558698Y58897393D01*
X58812222Y59276818D01*
X59159104Y58845500D01*
X59652181Y58575633D01*
X59734961Y58558096D01*
X59957000Y58680085D01*
X59957000Y60323000D01*
X59937000Y60323000D01*
X59937000Y60577000D01*
X59957000Y60577000D01*
X59957000Y62219915D01*
X60211000Y62219915D01*
X60211000Y60577000D01*
X60231000Y60577000D01*
X60231000Y60323000D01*
X60211000Y60323000D01*
X60211000Y58680085D01*
X60433039Y58558096D01*
X60515819Y58575633D01*
X61008896Y58845500D01*
X61355778Y59276818D01*
X61609302Y58897393D01*
X62074849Y58586324D01*
X62624000Y58477091D01*
X63173151Y58586324D01*
X63638698Y58897393D01*
X63949767Y59362940D01*
X64059000Y59912091D01*
X64059000Y60987909D01*
X63949767Y61537060D01*
X63638698Y62002607D01*
X63173151Y62313676D01*
X62624000Y62422909D01*
X62074849Y62313676D01*
X61609302Y62002607D01*
X61355778Y61623182D01*
X61008896Y62054500D01*
X60515819Y62324367D01*
X60433039Y62341904D01*
X60211000Y62219915D01*
X59957000Y62219915D01*
X59734961Y62341904D01*
X59652181Y62324367D01*
X59159104Y62054500D01*
X58812222Y61623182D01*
X58558698Y62002607D01*
X58093151Y62313676D01*
X57544000Y62422909D01*
X56994849Y62313676D01*
X56529302Y62002607D01*
X56274000Y61620521D01*
X56018698Y62002607D01*
X55553151Y62313676D01*
X55004000Y62422909D01*
X54454849Y62313676D01*
X53989302Y62002607D01*
X53734000Y61620521D01*
X53478698Y62002607D01*
X53013151Y62313676D01*
X52464000Y62422909D01*
X51914849Y62313676D01*
X51449302Y62002607D01*
X51194000Y61620521D01*
X50938698Y62002607D01*
X50473151Y62313676D01*
X49924000Y62422909D01*
X49374849Y62313676D01*
X48909302Y62002607D01*
X48654000Y61620521D01*
X48398698Y62002607D01*
X47933151Y62313676D01*
X47384000Y62422909D01*
X46834849Y62313676D01*
X46369302Y62002607D01*
X46114000Y61620521D01*
X45858698Y62002607D01*
X45393151Y62313676D01*
X44844000Y62422909D01*
X44294849Y62313676D01*
X43829302Y62002607D01*
X43518233Y61537060D01*
X43409000Y60987909D01*
X42215000Y60987909D01*
X42105767Y61537060D01*
X41794698Y62002607D01*
X41329151Y62313676D01*
X40780000Y62422909D01*
X40230849Y62313676D01*
X39765302Y62002607D01*
X39510000Y61620521D01*
X39254698Y62002607D01*
X38789151Y62313676D01*
X38240000Y62422909D01*
X37690849Y62313676D01*
X37225302Y62002607D01*
X36970000Y61620521D01*
X36714698Y62002607D01*
X36249151Y62313676D01*
X35700000Y62422909D01*
X35150849Y62313676D01*
X34685302Y62002607D01*
X34430000Y61620521D01*
X34174698Y62002607D01*
X33709151Y62313676D01*
X33160000Y62422909D01*
X32610849Y62313676D01*
X32145302Y62002607D01*
X31890000Y61620521D01*
X31634698Y62002607D01*
X31169151Y62313676D01*
X30620000Y62422909D01*
X30070849Y62313676D01*
X29605302Y62002607D01*
X29350000Y61620521D01*
X29094698Y62002607D01*
X28629151Y62313676D01*
X28080000Y62422909D01*
X27530849Y62313676D01*
X27065302Y62002607D01*
X26810000Y61620521D01*
X26554698Y62002607D01*
X26089151Y62313676D01*
X25540000Y62422909D01*
X24990849Y62313676D01*
X24525302Y62002607D01*
X24270000Y61620521D01*
X24014698Y62002607D01*
X23549151Y62313676D01*
X23000000Y62422909D01*
X22450849Y62313676D01*
X21985302Y62002607D01*
X21674233Y61537060D01*
X21565000Y60987909D01*
X710000Y60987909D01*
X710000Y75247381D01*
X18224613Y75247381D01*
X18564155Y74425628D01*
X19192321Y73796364D01*
X20013481Y73455389D01*
X20902619Y73454613D01*
X21724372Y73794155D01*
X22353636Y74422321D01*
X22694611Y75243481D01*
X22695387Y76132619D01*
X22355845Y76954372D01*
X21727679Y77583636D01*
X20906519Y77924611D01*
X20017381Y77925387D01*
X19195628Y77585845D01*
X18566364Y76957679D01*
X18225389Y76136519D01*
X18224613Y75247381D01*
X710000Y75247381D01*
X710000Y103187381D01*
X18224613Y103187381D01*
X18564155Y102365628D01*
X19192321Y101736364D01*
X20013481Y101395389D01*
X20902619Y101394613D01*
X21724372Y101734155D01*
X22353636Y102362321D01*
X22694611Y103183481D01*
X22695387Y104072619D01*
X22355845Y104894372D01*
X21727679Y105523636D01*
X20906519Y105864611D01*
X20017381Y105865387D01*
X19195628Y105525845D01*
X18566364Y104897679D01*
X18225389Y104076519D01*
X18224613Y103187381D01*
X710000Y103187381D01*
X710000Y109247909D01*
X21565000Y109247909D01*
X21565000Y108172091D01*
X21674233Y107622940D01*
X21985302Y107157393D01*
X22450849Y106846324D01*
X23000000Y106737091D01*
X23549151Y106846324D01*
X24014698Y107157393D01*
X24270000Y107539479D01*
X24525302Y107157393D01*
X24990849Y106846324D01*
X25540000Y106737091D01*
X26089151Y106846324D01*
X26554698Y107157393D01*
X26810000Y107539479D01*
X27065302Y107157393D01*
X27530849Y106846324D01*
X28080000Y106737091D01*
X28629151Y106846324D01*
X29094698Y107157393D01*
X29350000Y107539479D01*
X29605302Y107157393D01*
X30070849Y106846324D01*
X30620000Y106737091D01*
X31169151Y106846324D01*
X31634698Y107157393D01*
X31890000Y107539479D01*
X32145302Y107157393D01*
X32610849Y106846324D01*
X33160000Y106737091D01*
X33709151Y106846324D01*
X34174698Y107157393D01*
X34430000Y107539479D01*
X34685302Y107157393D01*
X35150849Y106846324D01*
X35700000Y106737091D01*
X36249151Y106846324D01*
X36714698Y107157393D01*
X37025767Y107622940D01*
X37135000Y108172091D01*
X37135000Y109247909D01*
X39345000Y109247909D01*
X39345000Y108172091D01*
X39454233Y107622940D01*
X39765302Y107157393D01*
X40230849Y106846324D01*
X40780000Y106737091D01*
X41329151Y106846324D01*
X41794698Y107157393D01*
X42048222Y107536818D01*
X42395104Y107105500D01*
X42888181Y106835633D01*
X42970961Y106818096D01*
X43193000Y106940085D01*
X43193000Y108583000D01*
X43447000Y108583000D01*
X43447000Y106940085D01*
X43669039Y106818096D01*
X43751819Y106835633D01*
X44244896Y107105500D01*
X44590000Y107534607D01*
X44935104Y107105500D01*
X45428181Y106835633D01*
X45510961Y106818096D01*
X45733000Y106940085D01*
X45733000Y108583000D01*
X43447000Y108583000D01*
X43193000Y108583000D01*
X43173000Y108583000D01*
X43173000Y108837000D01*
X43193000Y108837000D01*
X43193000Y110479915D01*
X43447000Y110479915D01*
X43447000Y108837000D01*
X45733000Y108837000D01*
X45733000Y110479915D01*
X45987000Y110479915D01*
X45987000Y108837000D01*
X46007000Y108837000D01*
X46007000Y108583000D01*
X45987000Y108583000D01*
X45987000Y106940085D01*
X46209039Y106818096D01*
X46291819Y106835633D01*
X46784896Y107105500D01*
X47131778Y107536818D01*
X47385302Y107157393D01*
X47850849Y106846324D01*
X48400000Y106737091D01*
X48949151Y106846324D01*
X49414698Y107157393D01*
X49670000Y107539479D01*
X49925302Y107157393D01*
X50390849Y106846324D01*
X50940000Y106737091D01*
X51489151Y106846324D01*
X51954698Y107157393D01*
X52210000Y107539479D01*
X52465302Y107157393D01*
X52930849Y106846324D01*
X53480000Y106737091D01*
X54029151Y106846324D01*
X54494698Y107157393D01*
X54805767Y107622940D01*
X54915000Y108172091D01*
X54915000Y108267381D01*
X70294613Y108267381D01*
X70634155Y107445628D01*
X71262321Y106816364D01*
X72083481Y106475389D01*
X72972619Y106474613D01*
X73794372Y106814155D01*
X74423636Y107442321D01*
X74764611Y108263481D01*
X74765387Y109152619D01*
X74425845Y109974372D01*
X73797679Y110603636D01*
X72976519Y110944611D01*
X72087381Y110945387D01*
X71265628Y110605845D01*
X70636364Y109977679D01*
X70295389Y109156519D01*
X70294613Y108267381D01*
X54915000Y108267381D01*
X54915000Y109247909D01*
X54805767Y109797060D01*
X54494698Y110262607D01*
X54029151Y110573676D01*
X53480000Y110682909D01*
X52930849Y110573676D01*
X52465302Y110262607D01*
X52210000Y109880521D01*
X51954698Y110262607D01*
X51489151Y110573676D01*
X50940000Y110682909D01*
X50390849Y110573676D01*
X49925302Y110262607D01*
X49670000Y109880521D01*
X49505000Y110127461D01*
X49505000Y110399868D01*
X51720132Y112615000D01*
X91279868Y112615000D01*
X92622560Y111272308D01*
X92622560Y109750000D01*
X92666838Y109514683D01*
X92805910Y109298559D01*
X93018110Y109153569D01*
X93270000Y109102560D01*
X95770000Y109102560D01*
X96005317Y109146838D01*
X96221441Y109285910D01*
X96366431Y109498110D01*
X96400567Y109666680D01*
X97326285Y109666680D01*
X97455533Y109373877D01*
X98155806Y109105612D01*
X98905435Y109125750D01*
X99504467Y109373877D01*
X99633715Y109666680D01*
X98480000Y110820395D01*
X97326285Y109666680D01*
X96400567Y109666680D01*
X96417440Y109750000D01*
X96417440Y111324194D01*
X96585612Y111324194D01*
X96605750Y110574565D01*
X96853877Y109975533D01*
X97146680Y109846285D01*
X98300395Y111000000D01*
X98659605Y111000000D01*
X99813320Y109846285D01*
X100106123Y109975533D01*
X100374388Y110675806D01*
X100354250Y111425435D01*
X100106123Y112024467D01*
X99813320Y112153715D01*
X98659605Y111000000D01*
X98300395Y111000000D01*
X97146680Y112153715D01*
X96853877Y112024467D01*
X96585612Y111324194D01*
X96417440Y111324194D01*
X96417440Y112250000D01*
X96401763Y112333320D01*
X97326285Y112333320D01*
X98480000Y111179605D01*
X99633715Y112333320D01*
X99504467Y112626123D01*
X98804194Y112894388D01*
X98054565Y112874250D01*
X97455533Y112626123D01*
X97326285Y112333320D01*
X96401763Y112333320D01*
X96373162Y112485317D01*
X96234090Y112701441D01*
X96155000Y112755481D01*
X96155000Y130249999D01*
X97364999Y130249999D01*
X97364999Y117500001D01*
X97451396Y117065655D01*
X97697433Y116697435D01*
X100197434Y114197434D01*
X100565654Y113951397D01*
X101000000Y113865001D01*
X101434345Y113951397D01*
X101802566Y114197434D01*
X102048603Y114565655D01*
X102134999Y115000000D01*
X102048603Y115434346D01*
X101802566Y115802566D01*
X99634999Y117970133D01*
X99634999Y119815099D01*
X99935167Y119814838D01*
X100177578Y119915000D01*
X102572766Y119915000D01*
X102813201Y119815162D01*
X103185167Y119814838D01*
X103528943Y119956883D01*
X103792192Y120219673D01*
X103934838Y120563201D01*
X103935162Y120935167D01*
X103804931Y121250351D01*
X103934838Y121563201D01*
X103935162Y121935167D01*
X103793117Y122278943D01*
X103530327Y122542192D01*
X103186799Y122684838D01*
X102814833Y122685162D01*
X102572422Y122585000D01*
X99927234Y122585000D01*
X99686799Y122684838D01*
X99634999Y122684883D01*
X99634999Y129779867D01*
X102052566Y132197434D01*
X102298603Y132565655D01*
X102385000Y133000000D01*
X102298603Y133434345D01*
X102052566Y133802566D01*
X101684345Y134048603D01*
X101250000Y134135000D01*
X100815655Y134048603D01*
X100447434Y133802566D01*
X97697433Y131052565D01*
X97451396Y130684345D01*
X97364999Y130249999D01*
X96155000Y130249999D01*
X96155000Y147579515D01*
X96817029Y147711201D01*
X97509673Y148174011D01*
X97972483Y148866655D01*
X98135000Y149683684D01*
X98135000Y150873000D01*
X99865000Y150873000D01*
X99865000Y149873000D01*
X100076118Y149065638D01*
X100580130Y148400524D01*
X101300304Y147978916D01*
X101541167Y147914887D01*
X101873000Y148027835D01*
X101873000Y150873000D01*
X102127000Y150873000D01*
X102127000Y148027835D01*
X102458833Y147914887D01*
X102699696Y147978916D01*
X103419870Y148400524D01*
X103923882Y149065638D01*
X104135000Y149873000D01*
X104135000Y150873000D01*
X102127000Y150873000D01*
X101873000Y150873000D01*
X99865000Y150873000D01*
X98135000Y150873000D01*
X98135000Y152127000D01*
X99865000Y152127000D01*
X99865000Y151127000D01*
X101873000Y151127000D01*
X101873000Y153972165D01*
X102127000Y153972165D01*
X102127000Y151127000D01*
X104135000Y151127000D01*
X104135000Y152127000D01*
X103923882Y152934362D01*
X103419870Y153599476D01*
X102699696Y154021084D01*
X102458833Y154085113D01*
X102127000Y153972165D01*
X101873000Y153972165D01*
X101541167Y154085113D01*
X101300304Y154021084D01*
X100580130Y153599476D01*
X100076118Y152934362D01*
X99865000Y152127000D01*
X98135000Y152127000D01*
X98135000Y152316316D01*
X97972483Y153133345D01*
X97509673Y153825989D01*
X97458176Y153860398D01*
X97823000Y153765000D01*
X98823000Y153765000D01*
X98823000Y155773000D01*
X99077000Y155773000D01*
X99077000Y153765000D01*
X100077000Y153765000D01*
X100884362Y153976118D01*
X101549476Y154480130D01*
X101971084Y155200304D01*
X102035113Y155441167D01*
X101922165Y155773000D01*
X99077000Y155773000D01*
X98823000Y155773000D01*
X95977835Y155773000D01*
X95864887Y155441167D01*
X95928916Y155200304D01*
X96350524Y154480130D01*
X96526839Y154346521D01*
X96000000Y154451316D01*
X95182971Y154288799D01*
X94490327Y153825989D01*
X94027517Y153133345D01*
X93865000Y152316316D01*
X93865000Y151177240D01*
X93343880Y150656120D01*
X92989457Y150125688D01*
X92864999Y149500000D01*
X92865000Y149499995D01*
X92865000Y149000005D01*
X92864999Y149000000D01*
X92885000Y148899449D01*
X92885000Y114220132D01*
X92552566Y114552566D01*
X92532977Y114565655D01*
X92184346Y114798603D01*
X91750000Y114885000D01*
X51250000Y114885000D01*
X50815654Y114798603D01*
X50467023Y114565655D01*
X50447434Y114552566D01*
X47567434Y111672566D01*
X47321397Y111304346D01*
X47235000Y110870000D01*
X47235000Y110037664D01*
X47131778Y109883182D01*
X46784896Y110314500D01*
X46291819Y110584367D01*
X46209039Y110601904D01*
X45987000Y110479915D01*
X45733000Y110479915D01*
X45510961Y110601904D01*
X45428181Y110584367D01*
X44935104Y110314500D01*
X44590000Y109885393D01*
X44244896Y110314500D01*
X43751819Y110584367D01*
X43669039Y110601904D01*
X43447000Y110479915D01*
X43193000Y110479915D01*
X42970961Y110601904D01*
X42888181Y110584367D01*
X42395104Y110314500D01*
X42048222Y109883182D01*
X41794698Y110262607D01*
X41329151Y110573676D01*
X40780000Y110682909D01*
X40230849Y110573676D01*
X39765302Y110262607D01*
X39454233Y109797060D01*
X39345000Y109247909D01*
X37135000Y109247909D01*
X37025767Y109797060D01*
X36714698Y110262607D01*
X36249151Y110573676D01*
X35700000Y110682909D01*
X35150849Y110573676D01*
X34685302Y110262607D01*
X34430000Y109880521D01*
X34174698Y110262607D01*
X33709151Y110573676D01*
X33160000Y110682909D01*
X32610849Y110573676D01*
X32145302Y110262607D01*
X31890000Y109880521D01*
X31634698Y110262607D01*
X31169151Y110573676D01*
X30620000Y110682909D01*
X30070849Y110573676D01*
X29605302Y110262607D01*
X29350000Y109880521D01*
X29094698Y110262607D01*
X28629151Y110573676D01*
X28080000Y110682909D01*
X27530849Y110573676D01*
X27065302Y110262607D01*
X26810000Y109880521D01*
X26554698Y110262607D01*
X26089151Y110573676D01*
X25540000Y110682909D01*
X24990849Y110573676D01*
X24525302Y110262607D01*
X24270000Y109880521D01*
X24014698Y110262607D01*
X23549151Y110573676D01*
X23000000Y110682909D01*
X22450849Y110573676D01*
X21985302Y110262607D01*
X21674233Y109797060D01*
X21565000Y109247909D01*
X710000Y109247909D01*
X710000Y122182690D01*
X10872285Y122182690D01*
X11499259Y120665296D01*
X12659190Y119503340D01*
X14175487Y118873718D01*
X15817310Y118872285D01*
X17334704Y119499259D01*
X18496660Y120659190D01*
X19126282Y122175487D01*
X19126288Y122182690D01*
X81872285Y122182690D01*
X82499259Y120665296D01*
X83659190Y119503340D01*
X85175487Y118873718D01*
X86817310Y118872285D01*
X88334704Y119499259D01*
X89496660Y120659190D01*
X90126282Y122175487D01*
X90127715Y123817310D01*
X89500741Y125334704D01*
X88340810Y126496660D01*
X86824513Y127126282D01*
X85182690Y127127715D01*
X83665296Y126500741D01*
X82503340Y125340810D01*
X81873718Y123824513D01*
X81872285Y122182690D01*
X19126288Y122182690D01*
X19127715Y123817310D01*
X18500741Y125334704D01*
X17340810Y126496660D01*
X15824513Y127126282D01*
X14182690Y127127715D01*
X12665296Y126500741D01*
X11503340Y125340810D01*
X10873718Y123824513D01*
X10872285Y122182690D01*
X710000Y122182690D01*
X710000Y156358833D01*
X95864887Y156358833D01*
X95977835Y156027000D01*
X98823000Y156027000D01*
X98823000Y158035000D01*
X99077000Y158035000D01*
X99077000Y156027000D01*
X101922165Y156027000D01*
X102035113Y156358833D01*
X101971084Y156599696D01*
X101549476Y157319870D01*
X100884362Y157823882D01*
X100077000Y158035000D01*
X99077000Y158035000D01*
X98823000Y158035000D01*
X97823000Y158035000D01*
X97015638Y157823882D01*
X96350524Y157319870D01*
X95928916Y156599696D01*
X95864887Y156358833D01*
X710000Y156358833D01*
X710000Y163482242D01*
X2175487Y162873718D01*
X3817310Y162872285D01*
X5334704Y163499259D01*
X6496660Y164659190D01*
X7126282Y166175487D01*
X7127715Y167817310D01*
X6519212Y169290000D01*
X12454187Y169290000D01*
X11503340Y168340810D01*
M02*
