M48
;DRILL file {KiCad 4.0.1-stable} date Monday, 18 September 2017 'pmt' 22:46:09
;FORMAT={-:-/ absolute / metric / decimal}
FMAT,2
METRIC,TZ
T1C0.400
T2C0.600
T3C1.000
T4C1.700
T5C3.200
%
G90
G05
M71
T1
X34.Y13.5
X39.Y18.25
X44.75Y49.5
X54.4Y11.1
X57.Y41.
X58.Y40.
X66.05Y54.75
X67.Y64.25
X67.Y53.5
X67.5Y80.75
X68.4Y13.1
X72.5Y55.75
X73.Y95.
X74.5Y90.864
X74.626Y90.
X74.75Y29.5
X74.881Y94.3
X75.Y78.75
X76.5Y101.3
X76.75Y88.75
X78.8Y77.
X79.5Y84.75
X79.5Y59.75
X80.Y80.25
X80.Y77.75
X81.Y88.05
X82.5Y87.25
X82.5Y38.
X83.Y54.
X83.5Y52.5
X83.75Y59.75
X85.25Y56.25
X85.75Y61.
X85.75Y54.75
X86.Y13.
X86.5Y78.5
X87.Y60.9
X87.Y44.6
X87.5Y103.5
X87.5Y74.5
X89.Y79.
X89.Y31.5
X89.886Y84.35
X90.83Y78.33
X91.Y66.25
X92.Y77.
X92.Y74.4
X92.Y58.
X92.6Y89.75
X93.5Y58.
X94.5Y85.25
X96.5Y30.
X97.011Y86.239
X98.25Y86.
X98.5Y88.75
X98.5Y70.
X99.25Y69.25
X99.5Y121.75
X99.5Y13.
X99.75Y120.75
X101.Y118.75
X101.Y115.
X101.25Y133.
X102.45Y87.95
X102.656Y41.156
X103.Y121.75
X103.Y120.75
T2
X30.92Y43.
X32.19Y43.
X33.46Y43.
X34.73Y43.
X36.Y43.
X37.27Y43.
X38.54Y43.
X39.81Y43.
X41.08Y43.
T3
X23.Y108.71
X23.Y60.45
X25.54Y108.71
X25.54Y60.45
X28.08Y108.71
X28.08Y60.45
X30.62Y108.71
X30.62Y60.45
X33.16Y108.71
X33.16Y60.45
X35.7Y108.71
X35.7Y60.45
X38.24Y60.45
X40.78Y108.71
X40.78Y60.45
X43.32Y108.71
X44.844Y60.45
X45.86Y108.71
X47.384Y60.45
X48.4Y108.71
X49.924Y60.45
X50.94Y108.71
X52.464Y60.45
X53.48Y108.71
X55.004Y60.45
X57.544Y60.45
X60.084Y60.45
X62.624Y60.45
T4
X94.52Y111.
X98.48Y111.
T5
X3.Y167.
X3.Y3.
X15.Y166.
X15.Y123.
X20.46Y103.63
X20.46Y75.69
X71.26Y60.45
X72.53Y108.71
X86.Y166.
X86.Y123.
X107.Y167.
X107.Y3.
T3
X96.Y149.75G85X96.Y152.25
G05
X99.95Y155.9G85X97.95Y155.9
G05
X102.Y150.G85X102.Y152.
G05
T0
M30
